Mertz-Light.ufo
<glyph name="exclam" format="1">
  <advance width="527"></advance>
  <unicode hex="0021"></unicode>
  <outline>
    <contour>
      <point x="262" y="-16" type="curve" smooth="yes"></point>
      <point x="203" y="-16"></point>
      <point x="172" y="28"></point>
      <point x="172" y="72" type="curve" smooth="yes"></point>
      <point x="172" y="115"></point>
      <point x="203" y="160"></point>
      <point x="262" y="160" type="curve" smooth="yes"></point>
      <point x="319" y="160"></point>
      <point x="350" y="114"></point>
      <point x="350" y="72" type="curve" smooth="yes"></point>
      <point x="350" y="28"></point>
      <point x="319" y="-16"></point>
    </contour>
    <contour>
      <point x="248" y="319" type="line" smooth="yes"></point>
      <point x="237" y="319"></point>
      <point x="233" y="325"></point>
      <point x="232" y="336" type="curve" smooth="yes"></point>
      <point x="192" y="1206" type="line" smooth="yes"></point>
      <point x="191" y="1228"></point>
      <point x="202" y="1240"></point>
      <point x="224" y="1240" type="curve" smooth="yes"></point>
      <point x="284" y="1240" type="line" smooth="yes"></point>
      <point x="306" y="1240"></point>
      <point x="317" y="1228"></point>
      <point x="316" y="1206" type="curve" smooth="yes"></point>
      <point x="276" y="336" type="line" smooth="yes"></point>
      <point x="275" y="325"></point>
      <point x="271" y="319"></point>
      <point x="260" y="319" type="curve" smooth="yes"></point>
    </contour>
  </outline>
</glyph>
<glyph name="quotedbl" format="1">
  <advance width="697"></advance>
  <unicode hex="0022"></unicode>
  <outline>
    <contour>
      <point x="238" y="728" type="line" smooth="yes"></point>
      <point x="227" y="728"></point>
      <point x="220" y="734"></point>
      <point x="220" y="745" type="curve" smooth="yes"></point>
      <point x="220" y="1206" type="line" smooth="yes"></point>
      <point x="220" y="1228"></point>
      <point x="230" y="1240"></point>
      <point x="252" y="1240" type="curve" smooth="yes"></point>
      <point x="311" y="1240" type="line" smooth="yes"></point>
      <point x="330" y="1240"></point>
      <point x="343" y="1230.19"></point>
      <point x="343" y="1212.04" type="curve" smooth="yes"></point>
      <point x="343" y="1210.12"></point>
      <point x="343" y="1208.11"></point>
      <point x="343" y="1206" type="curve" smooth="yes"></point>
      <point x="275" y="745" type="line" smooth="yes"></point>
      <point x="273" y="734"></point>
      <point x="268" y="728"></point>
      <point x="257" y="728" type="curve" smooth="yes"></point>
    </contour>
    <contour>
      <point x="489" y="728" type="line" smooth="yes"></point>
      <point x="478" y="728"></point>
      <point x="471" y="734"></point>
      <point x="471" y="745" type="curve" smooth="yes"></point>
      <point x="471" y="1206" type="line" smooth="yes"></point>
      <point x="471" y="1228"></point>
      <point x="481" y="1240"></point>
      <point x="503" y="1240" type="curve" smooth="yes"></point>
      <point x="562" y="1240" type="line" smooth="yes"></point>
      <point x="581" y="1240"></point>
      <point x="594" y="1230.19"></point>
      <point x="594" y="1212.04" type="curve" smooth="yes"></point>
      <point x="594" y="1210.12"></point>
      <point x="594" y="1208.11"></point>
      <point x="594" y="1206" type="curve" smooth="yes"></point>
      <point x="526" y="745" type="line" smooth="yes"></point>
      <point x="524" y="734"></point>
      <point x="519" y="728"></point>
      <point x="508" y="728" type="curve" smooth="yes"></point>
    </contour>
  </outline>
</glyph>
<glyph name="dollar" format="1">
  <advance width="914"></advance>
  <unicode hex="0024"></unicode>
  <outline>
    <contour>
      <point x="407" y="1166.25" type="line"></point>
      <point x="249" y="1153.54"></point>
      <point x="178" y="1073.1"></point>
      <point x="178" y="974.999" type="curve" smooth="yes"></point>
      <point x="178" y="890.999"></point>
      <point x="227" y="830.999"></point>
      <point x="326" y="771.999" type="curve" smooth="yes"></point>
      <point x="407" y="724.122" type="line"></point>
    </contour>
    <contour>
      <point x="494" y="73.7666" type="line"></point>
      <point x="636" y="86.4277"></point>
      <point x="707" y="165.963"></point>
      <point x="707" y="274" type="curve" smooth="yes"></point>
      <point x="707" y="359"></point>
      <point x="658" y="445"></point>
      <point x="535" y="517" type="curve" smooth="yes"></point>
      <point x="494" y="540.868" type="line"></point>
    </contour>
    <contour>
      <point x="441" y="-216" type="line" smooth="yes"></point>
      <point x="419" y="-216"></point>
      <point x="407" y="-204"></point>
      <point x="407" y="-182" type="curve" smooth="yes"></point>
      <point x="407" y="-32.6768" type="line"></point>
      <point x="265" y="-24.9014"></point>
      <point x="172" y="15.5996"></point>
      <point x="116" y="48" type="curve" smooth="yes"></point>
      <point x="96" y="59"></point>
      <point x="86" y="76"></point>
      <point x="86" y="98" type="curve" smooth="yes"></point>
      <point x="86" y="148" type="line" smooth="yes"></point>
      <point x="86" y="167"></point>
      <point x="99" y="174"></point>
      <point x="115" y="165" type="curve" smooth="yes"></point>
      <point x="196" y="116.185"></point>
      <point x="290" y="80.7607"></point>
      <point x="407" y="73.4111" type="curve"></point>
      <point x="407" y="591.514" type="line"></point>
      <point x="255" y="679.999" type="line" smooth="yes"></point>
      <point x="127" y="754.999"></point>
      <point x="55" y="851.999"></point>
      <point x="55" y="967.999" type="curve" smooth="yes"></point>
      <point x="55" y="1128.94"></point>
      <point x="173" y="1262.35"></point>
      <point x="407" y="1273.28" type="curve"></point>
      <point x="407" y="1400" type="line" smooth="yes"></point>
      <point x="407" y="1422"></point>
      <point x="419" y="1434"></point>
      <point x="441" y="1434" type="curve" smooth="yes"></point>
      <point x="460" y="1434" type="line" smooth="yes"></point>
      <point x="481" y="1434"></point>
      <point x="494" y="1422"></point>
      <point x="494" y="1400" type="curve" smooth="yes"></point>
      <point x="494" y="1272.16" type="line"></point>
      <point x="598" y="1265.26"></point>
      <point x="682" y="1240.18"></point>
      <point x="736" y="1218" type="curve" smooth="yes"></point>
      <point x="757" y="1209"></point>
      <point x="767" y="1193"></point>
      <point x="767" y="1171" type="curve" smooth="yes"></point>
      <point x="767" y="1122.6" type="line" smooth="yes"></point>
      <point x="767" y="1103.1"></point>
      <point x="754" y="1094.88"></point>
      <point x="736" y="1103.02" type="curve" smooth="yes"></point>
      <point x="662" y="1137.25"></point>
      <point x="575" y="1160.28"></point>
      <point x="494" y="1166.38" type="curve"></point>
      <point x="494" y="672.699" type="line"></point>
      <point x="596" y="613" type="line" smooth="yes"></point>
      <point x="787" y="500"></point>
      <point x="832" y="398"></point>
      <point x="832" y="281" type="curve" smooth="yes"></point>
      <point x="832" y="77.335"></point>
      <point x="671" y="-20.7197"></point>
      <point x="494" y="-32.7344" type="curve"></point>
      <point x="494" y="-182" type="line" smooth="yes"></point>
      <point x="494" y="-204"></point>
      <point x="481" y="-216"></point>
      <point x="460" y="-216" type="curve" smooth="yes"></point>
    </contour>
  </outline>
</glyph>
<glyph name="percent" format="1">
  <advance width="1751"></advance>
  <unicode hex="0025"></unicode>
  <outline>
    <contour>
      <point x="577" y="1" type="line" smooth="yes"></point>
      <point x="562" y="1"></point>
      <point x="554" y="8.35254"></point>
      <point x="554" y="19.6553" type="curve" smooth="yes"></point>
      <point x="554" y="23.3818"></point>
      <point x="555" y="27.5371"></point>
      <point x="557" y="32" type="curve" smooth="yes"></point>
      <point x="1087" y="1210" type="line" smooth="yes"></point>
      <point x="1096" y="1231"></point>
      <point x="1112" y="1241"></point>
      <point x="1135" y="1241" type="curve" smooth="yes"></point>
      <point x="1187" y="1241" type="line" smooth="yes"></point>
      <point x="1201" y="1241"></point>
      <point x="1209" y="1233.65"></point>
      <point x="1209" y="1222.34" type="curve" smooth="yes"></point>
      <point x="1209" y="1218.62"></point>
      <point x="1208" y="1214.46"></point>
      <point x="1207" y="1210" type="curve" smooth="yes"></point>
      <point x="675" y="32" type="line" smooth="yes"></point>
      <point x="666" y="11"></point>
      <point x="650" y="1"></point>
      <point x="627" y="1" type="curve" smooth="yes"></point>
    </contour>
    <contour>
      <point x="416" y="692" type="curve" smooth="yes"></point>
      <point x="568" y="692"></point>
      <point x="635" y="807"></point>
      <point x="635" y="923" type="curve" smooth="yes"></point>
      <point x="635" y="1039"></point>
      <point x="565" y="1156"></point>
      <point x="416" y="1156" type="curve" smooth="yes"></point>
      <point x="267" y="1156"></point>
      <point x="197" y="1039"></point>
      <point x="197" y="924" type="curve" smooth="yes"></point>
      <point x="197" y="796"></point>
      <point x="264" y="692"></point>
    </contour>
    <contour>
      <point x="415" y="612" type="curve" smooth="yes"></point>
      <point x="245" y="612"></point>
      <point x="99" y="725"></point>
      <point x="99" y="923" type="curve" smooth="yes"></point>
      <point x="99" y="1124"></point>
      <point x="245" y="1240"></point>
      <point x="416" y="1240" type="curve" smooth="yes"></point>
      <point x="575" y="1240"></point>
      <point x="732" y="1125"></point>
      <point x="732" y="923" type="curve" smooth="yes"></point>
      <point x="732" y="726"></point>
      <point x="586" y="612"></point>
    </contour>
    <contour>
      <point x="1347" y="80" type="curve" smooth="yes"></point>
      <point x="1499" y="80"></point>
      <point x="1566" y="195"></point>
      <point x="1566" y="311" type="curve" smooth="yes"></point>
      <point x="1566" y="427"></point>
      <point x="1496" y="544"></point>
      <point x="1347" y="544" type="curve" smooth="yes"></point>
      <point x="1198" y="544"></point>
      <point x="1128" y="427"></point>
      <point x="1128" y="312" type="curve" smooth="yes"></point>
      <point x="1128" y="184"></point>
      <point x="1195" y="80"></point>
    </contour>
    <contour>
      <point x="1346" y="0" type="curve" smooth="yes"></point>
      <point x="1176" y="0"></point>
      <point x="1030" y="113"></point>
      <point x="1030" y="311" type="curve" smooth="yes"></point>
      <point x="1030" y="512"></point>
      <point x="1176" y="628"></point>
      <point x="1347" y="628" type="curve" smooth="yes"></point>
      <point x="1506" y="628"></point>
      <point x="1663" y="513"></point>
      <point x="1663" y="311" type="curve" smooth="yes"></point>
      <point x="1663" y="114"></point>
      <point x="1517" y="0"></point>
    </contour>
  </outline>
</glyph>
<glyph name="quotesingle" format="1">
  <advance width="492"></advance>
  <unicode hex="0027"></unicode>
  <outline>
    <contour>
      <point x="199" y="728" type="line" smooth="yes"></point>
      <point x="188" y="728"></point>
      <point x="181" y="734"></point>
      <point x="181" y="745" type="curve" smooth="yes"></point>
      <point x="181" y="1206" type="line" smooth="yes"></point>
      <point x="181" y="1228"></point>
      <point x="191" y="1240"></point>
      <point x="213" y="1240" type="curve" smooth="yes"></point>
      <point x="272" y="1240" type="line" smooth="yes"></point>
      <point x="291" y="1240"></point>
      <point x="304" y="1230.19"></point>
      <point x="304" y="1212.04" type="curve" smooth="yes"></point>
      <point x="304" y="1210.12"></point>
      <point x="304" y="1208.11"></point>
      <point x="304" y="1206" type="curve" smooth="yes"></point>
      <point x="236" y="745" type="line" smooth="yes"></point>
      <point x="234" y="734"></point>
      <point x="229" y="728"></point>
      <point x="218" y="728" type="curve" smooth="yes"></point>
    </contour>
  </outline>
</glyph>
<glyph name="parenleft" format="1">
  <advance width="562"></advance>
  <unicode hex="0028"></unicode>
  <outline>
    <contour>
      <point x="293" y="-35" type="line"></point>
      <point x="199" y="164"></point>
      <point x="152" y="396"></point>
      <point x="152" y="653" type="curve" smooth="yes"></point>
      <point x="152" y="910"></point>
      <point x="199" y="1142"></point>
      <point x="293" y="1341" type="curve"></point>
      <point x="421" y="1341" type="line"></point>
      <point x="328" y="1133"></point>
      <point x="287" y="886"></point>
      <point x="287" y="653" type="curve" smooth="yes"></point>
      <point x="287" y="420"></point>
      <point x="328" y="173"></point>
      <point x="421" y="-35" type="curve"></point>
    </contour>
  </outline>
</glyph>
<glyph name="parenright" format="1">
  <advance width="595"></advance>
  <unicode hex="0029"></unicode>
  <outline>
    <contour>
      <point x="152" y="-35" type="line"></point>
      <point x="245" y="173"></point>
      <point x="286" y="420"></point>
      <point x="286" y="653" type="curve" smooth="yes"></point>
      <point x="286" y="886"></point>
      <point x="245" y="1133"></point>
      <point x="152" y="1341" type="curve"></point>
      <point x="280" y="1341" type="line"></point>
      <point x="374" y="1142"></point>
      <point x="421" y="910"></point>
      <point x="421" y="653" type="curve" smooth="yes"></point>
      <point x="421" y="396"></point>
      <point x="374" y="164"></point>
      <point x="280" y="-35" type="curve"></point>
    </contour>
  </outline>
</glyph>
<glyph name="asterisk" format="1">
  <advance width="833"></advance>
  <unicode hex="002A"></unicode>
  <outline>
    <contour>
      <point x="461" y="568.944" type="line"></point>
      <point x="707" y="667" type="line"></point>
      <point x="729" y="674"></point>
      <point x="744" y="668"></point>
      <point x="751" y="648" type="curve"></point>
      <point x="761" y="624" type="line" smooth="yes"></point>
      <point x="762" y="618.75"></point>
      <point x="763" y="613.875"></point>
      <point x="763" y="609.391" type="curve" smooth="yes"></point>
      <point x="763" y="595.938"></point>
      <point x="755" y="586"></point>
      <point x="740" y="580" type="curve" smooth="yes"></point>
      <point x="500" y="484.126" type="line"></point>
      <point x="685" y="276" type="line" smooth="yes"></point>
      <point x="700" y="260"></point>
      <point x="699" y="243"></point>
      <point x="683" y="228" type="curve"></point>
      <point x="663" y="212" type="line" smooth="yes"></point>
      <point x="655" y="204.969"></point>
      <point x="647" y="201.453"></point>
      <point x="640" y="201.453" type="curve" smooth="yes"></point>
      <point x="631" y="201.453"></point>
      <point x="622" y="205.969"></point>
      <point x="615" y="215" type="curve" smooth="yes"></point>
      <point x="414" y="440.675" type="line"></point>
      <point x="214" y="215" type="line" smooth="yes"></point>
      <point x="206" y="205.969"></point>
      <point x="197" y="201.453"></point>
      <point x="188" y="201.453" type="curve" smooth="yes"></point>
      <point x="181" y="201.453"></point>
      <point x="173" y="204.969"></point>
      <point x="166" y="212" type="curve" smooth="yes"></point>
      <point x="146" y="228" type="line"></point>
      <point x="130" y="243"></point>
      <point x="129" y="260"></point>
      <point x="144" y="276" type="curve" smooth="yes"></point>
      <point x="328" y="484.126" type="line"></point>
      <point x="89" y="580" type="line" smooth="yes"></point>
      <point x="73" y="586"></point>
      <point x="65" y="595.938"></point>
      <point x="65" y="609.391" type="curve" smooth="yes"></point>
      <point x="65" y="613.875"></point>
      <point x="66" y="618.75"></point>
      <point x="68" y="624" type="curve" smooth="yes"></point>
      <point x="78" y="648" type="line"></point>
      <point x="85" y="668"></point>
      <point x="100" y="674"></point>
      <point x="122" y="667" type="curve"></point>
      <point x="368" y="568.944" type="line"></point>
      <point x="368" y="860" type="line" smooth="yes"></point>
      <point x="368" y="882"></point>
      <point x="380" y="894"></point>
      <point x="402" y="894" type="curve" smooth="yes"></point>
      <point x="427" y="894" type="line" smooth="yes"></point>
      <point x="449" y="894"></point>
      <point x="461" y="882"></point>
      <point x="461" y="860" type="curve" smooth="yes"></point>
    </contour>
    <contour>
      <point x="428" y="532" type="line"></point>
      <point x="400" y="532" type="line"></point>
      <point x="391" y="507.563" type="line"></point>
      <point x="414" y="486.543" type="line"></point>
      <point x="437" y="507.563" type="line"></point>
    </contour>
  </outline>
</glyph>
<glyph name="plus" format="1">
  <advance width="918"></advance>
  <unicode hex="002B"></unicode>
  <outline>
    <contour>
      <point x="552" y="103" type="line" smooth="yes"></point>
      <point x="530" y="103"></point>
      <point x="518" y="115"></point>
      <point x="518" y="137" type="curve" smooth="yes"></point>
      <point x="518" y="449" type="line"></point>
      <point x="254" y="449" type="line" smooth="yes"></point>
      <point x="232" y="449"></point>
      <point x="220" y="461"></point>
      <point x="220" y="483" type="curve" smooth="yes"></point>
      <point x="220" y="498" type="line" smooth="yes"></point>
      <point x="220" y="520"></point>
      <point x="232" y="532"></point>
      <point x="254" y="532" type="curve" smooth="yes"></point>
      <point x="518" y="532" type="line"></point>
      <point x="518" y="860" type="line" smooth="yes"></point>
      <point x="518" y="882"></point>
      <point x="530" y="894"></point>
      <point x="552" y="894" type="curve" smooth="yes"></point>
      <point x="577" y="894" type="line" smooth="yes"></point>
      <point x="599" y="894"></point>
      <point x="611" y="882"></point>
      <point x="611" y="860" type="curve" smooth="yes"></point>
      <point x="611" y="532" type="line"></point>
      <point x="875" y="532" type="line" smooth="yes"></point>
      <point x="897" y="532"></point>
      <point x="909" y="520"></point>
      <point x="909" y="498" type="curve" smooth="yes"></point>
      <point x="909" y="483" type="line" smooth="yes"></point>
      <point x="909" y="461"></point>
      <point x="897" y="449"></point>
      <point x="875" y="449" type="curve" smooth="yes"></point>
      <point x="611" y="449" type="line"></point>
      <point x="611" y="137" type="line" smooth="yes"></point>
      <point x="611" y="115"></point>
      <point x="599" y="103"></point>
      <point x="577" y="103" type="curve" smooth="yes"></point>
    </contour>
  </outline>
</glyph>
<glyph name="comma" format="1">
  <advance width="492"></advance>
  <unicode hex="002C"></unicode>
  <outline>
    <contour>
      <point x="171" y="-153" type="line" smooth="yes"></point>
      <point x="161" y="-153"></point>
      <point x="156" y="-148.13"></point>
      <point x="156" y="-141.446" type="curve" smooth="yes"></point>
      <point x="156" y="-138.116"></point>
      <point x="157" y="-134.335"></point>
      <point x="160" y="-130.481" type="curve" smooth="yes"></point>
      <point x="191" y="-90.6816"></point>
      <point x="219" y="-52.1143"></point>
      <point x="229" y="-10" type="curve"></point>
      <point x="193" y="3"></point>
      <point x="174" y="38"></point>
      <point x="174" y="72" type="curve" smooth="yes"></point>
      <point x="174" y="115"></point>
      <point x="205" y="160"></point>
      <point x="264" y="160" type="curve" smooth="yes"></point>
      <point x="321" y="160"></point>
      <point x="352" y="114"></point>
      <point x="352" y="72" type="curve" smooth="yes"></point>
      <point x="352" y="17.0479"></point>
      <point x="316" y="-50.917"></point>
      <point x="223" y="-134.318" type="curve" smooth="yes"></point>
      <point x="209" y="-146.547"></point>
      <point x="192" y="-153"></point>
      <point x="174" y="-153" type="curve" smooth="yes"></point>
    </contour>
  </outline>
</glyph>
<glyph name="hyphen" format="1">
  <advance width="844"></advance>
  <unicode hex="002D"></unicode>
  <outline>
    <contour>
      <point x="142" y="505" type="line" smooth="yes"></point>
      <point x="120" y="505"></point>
      <point x="108" y="517"></point>
      <point x="108" y="539" type="curve" smooth="yes"></point>
      <point x="108" y="576" type="line" smooth="yes"></point>
      <point x="108" y="598"></point>
      <point x="120" y="610"></point>
      <point x="142" y="610" type="curve" smooth="yes"></point>
      <point x="674" y="610" type="line" smooth="yes"></point>
      <point x="696" y="610"></point>
      <point x="708" y="598"></point>
      <point x="708" y="576" type="curve" smooth="yes"></point>
      <point x="708" y="539" type="line" smooth="yes"></point>
      <point x="708" y="517"></point>
      <point x="696" y="505"></point>
      <point x="674" y="505" type="curve" smooth="yes"></point>
    </contour>
  </outline>
</glyph>
<glyph name="period" format="1">
  <advance width="544"></advance>
  <unicode hex="002E"></unicode>
  <outline>
    <contour>
      <point x="271" y="-16" type="curve" smooth="yes"></point>
      <point x="212" y="-16"></point>
      <point x="181" y="28"></point>
      <point x="181" y="72" type="curve" smooth="yes"></point>
      <point x="181" y="115"></point>
      <point x="212" y="160"></point>
      <point x="271" y="160" type="curve" smooth="yes"></point>
      <point x="328" y="160"></point>
      <point x="359" y="114"></point>
      <point x="359" y="72" type="curve" smooth="yes"></point>
      <point x="359" y="28"></point>
      <point x="328" y="-16"></point>
    </contour>
  </outline>
</glyph>
<glyph name="slash" format="1">
  <advance width="773"></advance>
  <unicode hex="002F"></unicode>
  <outline>
    <contour>
      <point x="101" y="0" type="line" smooth="yes"></point>
      <point x="87" y="0"></point>
      <point x="79" y="7.48926"></point>
      <point x="79" y="18.6738" type="curve" smooth="yes"></point>
      <point x="79" y="22.4131"></point>
      <point x="79" y="26.5664"></point>
      <point x="81" y="30.9912" type="curve" smooth="yes"></point>
      <point x="611" y="1209" type="line" smooth="yes"></point>
      <point x="620" y="1230"></point>
      <point x="636" y="1240"></point>
      <point x="659" y="1240" type="curve" smooth="yes"></point>
      <point x="711" y="1240" type="line" smooth="yes"></point>
      <point x="726" y="1240"></point>
      <point x="734" y="1232.65"></point>
      <point x="734" y="1221.34" type="curve" smooth="yes"></point>
      <point x="734" y="1217.62"></point>
      <point x="733" y="1213.46"></point>
      <point x="731" y="1209" type="curve" smooth="yes"></point>
      <point x="199" y="30.9912" type="line" smooth="yes"></point>
      <point x="190" y="10.0557"></point>
      <point x="174" y="0"></point>
      <point x="151" y="0" type="curve" smooth="yes"></point>
    </contour>
  </outline>
</glyph>
<glyph name="zero" format="1">
  <advance width="1088"></advance>
  <unicode hex="0030"></unicode>
  <outline>
    <contour>
      <point x="543" y="73" type="curve" smooth="yes"></point>
      <point x="729" y="73"></point>
      <point x="836" y="222"></point>
      <point x="836" y="619" type="curve" smooth="yes"></point>
      <point x="836" y="1011"></point>
      <point x="729" y="1167"></point>
      <point x="543" y="1167" type="curve" smooth="yes"></point>
      <point x="358" y="1167"></point>
      <point x="250" y="1011"></point>
      <point x="250" y="619" type="curve" smooth="yes"></point>
      <point x="250" y="222"></point>
      <point x="358" y="73"></point>
    </contour>
    <contour>
      <point x="543" y="-34" type="curve" smooth="yes"></point>
      <point x="288" y="-34"></point>
      <point x="128" y="179"></point>
      <point x="128" y="619" type="curve" smooth="yes"></point>
      <point x="128" y="1081"></point>
      <point x="283" y="1274"></point>
      <point x="543" y="1274" type="curve" smooth="yes"></point>
      <point x="803" y="1274"></point>
      <point x="958" y="1081"></point>
      <point x="958" y="619" type="curve" smooth="yes"></point>
      <point x="958" y="179"></point>
      <point x="799" y="-34"></point>
    </contour>
  </outline>
</glyph>
<glyph name="one" format="1">
  <advance width="703"></advance>
  <unicode hex="0031"></unicode>
  <outline>
    <contour>
      <point x="488" y="0" type="line" smooth="yes"></point>
      <point x="466" y="0"></point>
      <point x="454" y="12"></point>
      <point x="454" y="34" type="curve" smooth="yes"></point>
      <point x="454" y="1057" type="line"></point>
      <point x="385" y="1013"></point>
      <point x="305" y="977"></point>
      <point x="237" y="954" type="curve" smooth="yes"></point>
      <point x="219" y="947"></point>
      <point x="205" y="957"></point>
      <point x="205" y="977" type="curve" smooth="yes"></point>
      <point x="205" y="1011" type="line" smooth="yes"></point>
      <point x="205" y="1035"></point>
      <point x="215" y="1050"></point>
      <point x="236" y="1059" type="curve" smooth="yes"></point>
      <point x="378" y="1120"></point>
      <point x="501" y="1201"></point>
      <point x="554" y="1238" type="curve" smooth="yes"></point>
      <point x="558" y="1241.59"></point>
      <point x="563" y="1243.26"></point>
      <point x="567" y="1243.26" type="curve" smooth="yes"></point>
      <point x="576" y="1243.26"></point>
      <point x="582" y="1236.13"></point>
      <point x="582" y="1224" type="curve" smooth="yes"></point>
      <point x="582" y="34" type="line" smooth="yes"></point>
      <point x="582" y="12"></point>
      <point x="570" y="0"></point>
      <point x="548" y="0" type="curve" smooth="yes"></point>
    </contour>
  </outline>
</glyph>
<glyph name="two" format="1">
  <advance width="850"></advance>
  <unicode hex="0032"></unicode>
  <outline>
    <contour>
      <point x="78" y="0" type="line" smooth="yes"></point>
      <point x="66" y="0"></point>
      <point x="60" y="5.58691"></point>
      <point x="60" y="13.3789" type="curve" smooth="yes"></point>
      <point x="60" y="17.4736"></point>
      <point x="62" y="22.1777"></point>
      <point x="66" y="27" type="curve" smooth="yes"></point>
      <point x="481" y="586" type="line" smooth="yes"></point>
      <point x="565" y="700"></point>
      <point x="625" y="796"></point>
      <point x="625" y="935" type="curve" smooth="yes"></point>
      <point x="625" y="1090"></point>
      <point x="523" y="1167"></point>
      <point x="405" y="1167" type="curve" smooth="yes"></point>
      <point x="311" y="1167"></point>
      <point x="214" y="1119"></point>
      <point x="159" y="1079" type="curve" smooth="yes"></point>
      <point x="141" y="1066"></point>
      <point x="127" y="1070"></point>
      <point x="117" y="1090" type="curve" smooth="yes"></point>
      <point x="98" y="1132" type="line" smooth="yes"></point>
      <point x="90" y="1150"></point>
      <point x="94" y="1169"></point>
      <point x="111" y="1180" type="curve"></point>
      <point x="177" y="1228"></point>
      <point x="293" y="1274"></point>
      <point x="409" y="1274" type="curve" smooth="yes"></point>
      <point x="602" y="1274"></point>
      <point x="744" y="1136"></point>
      <point x="744" y="920" type="curve" smooth="yes"></point>
      <point x="744" y="763"></point>
      <point x="668" y="651"></point>
      <point x="556" y="503" type="curve" smooth="yes"></point>
      <point x="256" y="106" type="line"></point>
      <point x="723" y="106" type="line" smooth="yes"></point>
      <point x="744" y="106"></point>
      <point x="756" y="94"></point>
      <point x="756" y="72" type="curve" smooth="yes"></point>
      <point x="756" y="34" type="line" smooth="yes"></point>
      <point x="756" y="12"></point>
      <point x="744" y="0"></point>
      <point x="723" y="0" type="curve" smooth="yes"></point>
    </contour>
  </outline>
</glyph>
<glyph name="three" format="1">
  <advance width="844"></advance>
  <unicode hex="0033"></unicode>
  <outline>
    <contour>
      <point x="379" y="-33" type="curve" smooth="yes"></point>
      <point x="303" y="-33"></point>
      <point x="201" y="-8.99902"></point>
      <point x="121" y="31.001" type="curve" smooth="yes"></point>
      <point x="106" y="37.8311"></point>
      <point x="98" y="49.8447"></point>
      <point x="98" y="63.9824" type="curve" smooth="yes"></point>
      <point x="98" y="68.4736"></point>
      <point x="99" y="73.1787"></point>
      <point x="101" y="78" type="curve" smooth="yes"></point>
      <point x="111" y="109" type="line" smooth="yes"></point>
      <point x="117" y="130"></point>
      <point x="132" y="136"></point>
      <point x="152" y="127" type="curve" smooth="yes"></point>
      <point x="236" y="89"></point>
      <point x="320" y="70"></point>
      <point x="389" y="70" type="curve" smooth="yes"></point>
      <point x="537" y="70"></point>
      <point x="648" y="161"></point>
      <point x="648" y="299" type="curve" smooth="yes"></point>
      <point x="648" y="451"></point>
      <point x="544" y="560"></point>
      <point x="285" y="635" type="curve" smooth="yes"></point>
      <point x="273" y="638"></point>
      <point x="267" y="661"></point>
      <point x="267" y="661" type="curve"></point>
      <point x="267" y="674"></point>
      <point x="273" y="682"></point>
      <point x="285" y="686" type="curve" smooth="yes"></point>
      <point x="463" y="744"></point>
      <point x="624" y="813"></point>
      <point x="624" y="962" type="curve" smooth="yes"></point>
      <point x="624" y="1115"></point>
      <point x="499" y="1173"></point>
      <point x="380" y="1173" type="curve" smooth="yes"></point>
      <point x="305" y="1173"></point>
      <point x="221" y="1150"></point>
      <point x="160" y="1115" type="curve" smooth="yes"></point>
      <point x="140" y="1104"></point>
      <point x="126" y="1109"></point>
      <point x="117" y="1130" type="curve" smooth="yes"></point>
      <point x="104" y="1162" type="line" smooth="yes"></point>
      <point x="101" y="1167.9"></point>
      <point x="100" y="1173.62"></point>
      <point x="100" y="1179.01" type="curve" smooth="yes"></point>
      <point x="100" y="1191.92"></point>
      <point x="107" y="1202.95"></point>
      <point x="120" y="1210" type="curve" smooth="yes"></point>
      <point x="194" y="1250"></point>
      <point x="296" y="1275"></point>
      <point x="388" y="1275" type="curve" smooth="yes"></point>
      <point x="567" y="1275"></point>
      <point x="741" y="1183"></point>
      <point x="741" y="961" type="curve" smooth="yes"></point>
      <point x="741" y="799"></point>
      <point x="602" y="703"></point>
      <point x="478" y="663" type="curve"></point>
      <point x="628" y="613"></point>
      <point x="767" y="486"></point>
      <point x="767" y="304" type="curve" smooth="yes"></point>
      <point x="767" y="106"></point>
      <point x="627" y="-33"></point>
    </contour>
  </outline>
</glyph>
<glyph name="four" format="1">
  <advance width="935"></advance>
  <unicode hex="0034"></unicode>
  <outline>
    <contour>
      <point x="648" y="0" type="line" smooth="yes"></point>
      <point x="626" y="0"></point>
      <point x="614" y="11.999"></point>
      <point x="614" y="33.999" type="curve" smooth="yes"></point>
      <point x="614" y="256.999" type="line"></point>
      <point x="55" y="256.999" type="line" smooth="yes"></point>
      <point x="42" y="256.999"></point>
      <point x="36" y="262.909"></point>
      <point x="36" y="271.357" type="curve" smooth="yes"></point>
      <point x="36" y="275.439"></point>
      <point x="37" y="280.113"></point>
      <point x="41" y="285" type="curve" smooth="yes"></point>
      <point x="716" y="1225" type="line" smooth="yes"></point>
      <point x="719" y="1230.36"></point>
      <point x="723" y="1232.83"></point>
      <point x="727" y="1232.83" type="curve" smooth="yes"></point>
      <point x="732" y="1232.83"></point>
      <point x="736" y="1227.81"></point>
      <point x="736" y="1219" type="curve" smooth="yes"></point>
      <point x="736" y="363" type="line"></point>
      <point x="900" y="363" type="line" smooth="yes"></point>
      <point x="923" y="363"></point>
      <point x="932" y="360"></point>
      <point x="932" y="337" type="curve" smooth="yes"></point>
      <point x="932" y="285" type="line" smooth="yes"></point>
      <point x="932" y="264"></point>
      <point x="927" y="256.999"></point>
      <point x="906" y="256.999" type="curve" smooth="yes"></point>
      <point x="736" y="256.999" type="line"></point>
      <point x="736" y="33.999" type="line" smooth="yes"></point>
      <point x="736" y="11.999"></point>
      <point x="724" y="0"></point>
      <point x="702" y="0" type="curve" smooth="yes"></point>
    </contour>
    <contour>
      <point x="227" y="363" type="line"></point>
      <point x="614" y="363" type="line"></point>
      <point x="614" y="910" type="line"></point>
    </contour>
  </outline>
</glyph>
<glyph name="five" format="1">
  <advance width="914"></advance>
  <unicode hex="0035"></unicode>
  <outline>
    <contour>
      <point x="820" y="368.123" type="curve" smooth="yes"></point>
      <point x="820" y="99.9248"></point>
      <point x="645" y="-34.001"></point>
      <point x="403" y="-34.001" type="curve" smooth="yes"></point>
      <point x="291" y="-34.001"></point>
      <point x="173" y="2.99902"></point>
      <point x="102" y="57.999" type="curve" smooth="yes"></point>
      <point x="90" y="67.3828"></point>
      <point x="84" y="80.4141"></point>
      <point x="84" y="94.084" type="curve" smooth="yes"></point>
      <point x="84" y="99.3516"></point>
      <point x="85" y="104.714"></point>
      <point x="87" y="109.999" type="curve" smooth="yes"></point>
      <point x="99" y="148.999" type="line"></point>
      <point x="106" y="167.999"></point>
      <point x="120" y="172.999"></point>
      <point x="137" y="160.999" type="curve" smooth="yes"></point>
      <point x="192" y="120.999"></point>
      <point x="288" y="72.999"></point>
      <point x="406" y="72.999" type="curve" smooth="yes"></point>
      <point x="588" y="72.999"></point>
      <point x="701" y="184.493"></point>
      <point x="701" y="363.035" type="curve" smooth="yes"></point>
      <point x="701" y="530.511"></point>
      <point x="608" y="640"></point>
      <point x="447" y="640" type="curve" smooth="yes"></point>
      <point x="387" y="640"></point>
      <point x="306" y="628"></point>
      <point x="259" y="588" type="curve" smooth="yes"></point>
      <point x="242" y="574.664"></point>
      <point x="230" y="569.013"></point>
      <point x="214" y="569.013" type="curve" smooth="yes"></point>
      <point x="208" y="569.013"></point>
      <point x="202" y="569.704"></point>
      <point x="195" y="571" type="curve" smooth="yes"></point>
      <point x="166" y="575" type="line" smooth="yes"></point>
      <point x="144" y="579"></point>
      <point x="133" y="593"></point>
      <point x="134" y="615" type="curve" smooth="yes"></point>
      <point x="162" y="1207" type="line" smooth="yes"></point>
      <point x="163" y="1229"></point>
      <point x="176" y="1241"></point>
      <point x="198" y="1241" type="curve" smooth="yes"></point>
      <point x="690" y="1241" type="line" smooth="yes"></point>
      <point x="711" y="1241"></point>
      <point x="723" y="1228"></point>
      <point x="721" y="1207" type="curve"></point>
      <point x="719" y="1156" type="line"></point>
      <point x="717" y="1134"></point>
      <point x="704" y="1122"></point>
      <point x="682" y="1122" type="curve" smooth="yes"></point>
      <point x="265" y="1122" type="line"></point>
      <point x="246" y="685" type="line"></point>
      <point x="306" y="726"></point>
      <point x="391" y="743"></point>
      <point x="452" y="743" type="curve" smooth="yes"></point>
      <point x="641" y="743"></point>
      <point x="820" y="613.163"></point>
    </contour>
  </outline>
</glyph>
<glyph name="six" format="1">
  <advance width="986"></advance>
  <unicode hex="0036"></unicode>
  <outline>
    <contour>
      <point x="695" y="1241" type="line" smooth="yes"></point>
      <point x="712" y="1241"></point>
      <point x="720" y="1228"></point>
      <point x="708" y="1213.68" type="curve" smooth="yes"></point>
      <point x="282" y="646" type="line"></point>
      <point x="330" y="681"></point>
      <point x="401" y="731"></point>
      <point x="511" y="731" type="curve" smooth="yes"></point>
      <point x="700" y="731"></point>
      <point x="879" y="588"></point>
      <point x="879" y="359" type="curve" smooth="yes"></point>
      <point x="879" y="137"></point>
      <point x="711" y="-33"></point>
      <point x="483" y="-33" type="curve" smooth="yes"></point>
      <point x="242" y="-33"></point>
      <point x="99" y="137"></point>
      <point x="99" y="362" type="curve" smooth="yes"></point>
      <point x="99" y="526"></point>
      <point x="156" y="640"></point>
      <point x="277" y="806" type="curve" smooth="yes"></point>
      <point x="573" y="1214" type="line" smooth="yes"></point>
      <point x="586" y="1232"></point>
      <point x="605" y="1241"></point>
      <point x="628" y="1241" type="curve" smooth="yes"></point>
    </contour>
    <contour>
      <point x="483" y="631" type="curve" smooth="yes"></point>
      <point x="302" y="631"></point>
      <point x="221" y="505"></point>
      <point x="221" y="352" type="curve" smooth="yes"></point>
      <point x="221" y="198"></point>
      <point x="309" y="74"></point>
      <point x="476" y="74" type="curve" smooth="yes"></point>
      <point x="643" y="74"></point>
      <point x="757" y="202"></point>
      <point x="757" y="358" type="curve" smooth="yes"></point>
      <point x="757" y="523"></point>
      <point x="646" y="631"></point>
    </contour>
  </outline>
</glyph>
<glyph name="seven" format="1">
  <advance width="731"></advance>
  <unicode hex="0037"></unicode>
  <outline>
    <contour>
      <point x="201" y="0" type="line" smooth="yes"></point>
      <point x="181" y="0"></point>
      <point x="171" y="12.999"></point>
      <point x="178" y="31.999" type="curve" smooth="yes"></point>
      <point x="560" y="1135" type="line"></point>
      <point x="65" y="1135" type="line" smooth="yes"></point>
      <point x="43" y="1135"></point>
      <point x="31" y="1147"></point>
      <point x="31" y="1169" type="curve" smooth="yes"></point>
      <point x="31" y="1207" type="line" smooth="yes"></point>
      <point x="31" y="1229"></point>
      <point x="43" y="1241"></point>
      <point x="65" y="1241" type="curve" smooth="yes"></point>
      <point x="655" y="1241" type="line" smooth="yes"></point>
      <point x="671" y="1241"></point>
      <point x="680" y="1176.07"></point>
      <point x="680" y="1136.58" type="curve" smooth="yes"></point>
      <point x="680" y="1124.44"></point>
      <point x="679" y="1114.7"></point>
      <point x="678" y="1110" type="curve" smooth="yes"></point>
      <point x="301" y="31.999" type="line" smooth="yes"></point>
      <point x="294" y="10.999"></point>
      <point x="279" y="0"></point>
      <point x="256" y="0" type="curve" smooth="yes"></point>
    </contour>
  </outline>
</glyph>
<glyph name="eight" format="1">
  <advance width="935"></advance>
  <unicode hex="0038"></unicode>
  <outline>
    <contour>
      <point x="463" y="1274" type="curve" smooth="yes"></point>
      <point x="681" y="1274"></point>
      <point x="804" y="1129"></point>
      <point x="804" y="970" type="curve" smooth="yes"></point>
      <point x="804" y="846"></point>
      <point x="728" y="719"></point>
      <point x="567" y="657" type="curve"></point>
      <point x="747" y="579"></point>
      <point x="827" y="442"></point>
      <point x="827" y="281" type="curve" smooth="yes"></point>
      <point x="827" y="75"></point>
      <point x="643" y="-34"></point>
      <point x="463" y="-34" type="curve" smooth="yes"></point>
      <point x="283" y="-34"></point>
      <point x="99" y="75"></point>
      <point x="99" y="281" type="curve" smooth="yes"></point>
      <point x="99" y="442"></point>
      <point x="179" y="579"></point>
      <point x="359" y="657" type="curve"></point>
      <point x="198" y="719"></point>
      <point x="122" y="846"></point>
      <point x="122" y="970" type="curve" smooth="yes"></point>
      <point x="122" y="1129"></point>
      <point x="245" y="1274"></point>
    </contour>
    <contour>
      <point x="463" y="710" type="curve"></point>
      <point x="619" y="764"></point>
      <point x="686" y="865"></point>
      <point x="686" y="973" type="curve" smooth="yes"></point>
      <point x="686" y="1093"></point>
      <point x="590" y="1168"></point>
      <point x="463" y="1168" type="curve" smooth="yes"></point>
      <point x="336" y="1168"></point>
      <point x="240" y="1093"></point>
      <point x="240" y="973" type="curve" smooth="yes"></point>
      <point x="240" y="865"></point>
      <point x="307" y="764"></point>
    </contour>
    <contour>
      <point x="226" y="311.733" type="curve" smooth="yes"></point>
      <point x="226" y="151.424"></point>
      <point x="333" y="72"></point>
      <point x="463" y="72" type="curve" smooth="yes"></point>
      <point x="592" y="72"></point>
      <point x="699" y="151.405"></point>
      <point x="699" y="311.733" type="curve" smooth="yes"></point>
      <point x="699" y="443.389"></point>
      <point x="620" y="554.035"></point>
      <point x="463" y="605" type="curve"></point>
      <point x="305" y="554.035"></point>
      <point x="226" y="443.389"></point>
    </contour>
  </outline>
</glyph>
<glyph name="nine" format="1">
  <advance width="952"></advance>
  <unicode hex="0039"></unicode>
  <outline>
    <contour>
      <point x="268" y="0" type="line" smooth="yes"></point>
      <point x="250" y="0"></point>
      <point x="243" y="13"></point>
      <point x="254" y="27.3223" type="curve" smooth="yes"></point>
      <point x="681" y="595" type="line"></point>
      <point x="633" y="560"></point>
      <point x="562" y="510"></point>
      <point x="452" y="510" type="curve" smooth="yes"></point>
      <point x="263" y="510"></point>
      <point x="84" y="653"></point>
      <point x="84" y="882" type="curve" smooth="yes"></point>
      <point x="84" y="1104"></point>
      <point x="252" y="1274"></point>
      <point x="480" y="1274" type="curve" smooth="yes"></point>
      <point x="721" y="1274"></point>
      <point x="864" y="1104"></point>
      <point x="864" y="879" type="curve" smooth="yes"></point>
      <point x="864" y="715"></point>
      <point x="807" y="601"></point>
      <point x="686" y="435" type="curve" smooth="yes"></point>
      <point x="390" y="27" type="line" smooth="yes"></point>
      <point x="377" y="9"></point>
      <point x="358" y="0"></point>
      <point x="335" y="0" type="curve" smooth="yes"></point>
    </contour>
    <contour>
      <point x="480" y="610" type="curve" smooth="yes"></point>
      <point x="661" y="610"></point>
      <point x="742" y="736"></point>
      <point x="742" y="889" type="curve" smooth="yes"></point>
      <point x="742" y="1043"></point>
      <point x="654" y="1167"></point>
      <point x="487" y="1167" type="curve" smooth="yes"></point>
      <point x="320" y="1167"></point>
      <point x="206" y="1039"></point>
      <point x="206" y="883" type="curve" smooth="yes"></point>
      <point x="206" y="718"></point>
      <point x="317" y="610"></point>
    </contour>
  </outline>
</glyph>
<glyph name="colon" format="1">
  <advance width="492"></advance>
  <unicode hex="003A"></unicode>
  <outline>
    <contour>
      <point x="256" y="655" type="curve" smooth="yes"></point>
      <point x="197" y="655"></point>
      <point x="166" y="699"></point>
      <point x="166" y="743" type="curve" smooth="yes"></point>
      <point x="166" y="786"></point>
      <point x="197" y="831"></point>
      <point x="256" y="831" type="curve" smooth="yes"></point>
      <point x="313" y="831"></point>
      <point x="344" y="785"></point>
      <point x="344" y="743" type="curve" smooth="yes"></point>
      <point x="344" y="699"></point>
      <point x="313" y="655"></point>
    </contour>
    <contour>
      <point x="256" y="-1" type="curve" smooth="yes"></point>
      <point x="197" y="-1"></point>
      <point x="166" y="43"></point>
      <point x="166" y="87" type="curve" smooth="yes"></point>
      <point x="166" y="130"></point>
      <point x="197" y="175"></point>
      <point x="256" y="175" type="curve" smooth="yes"></point>
      <point x="313" y="175"></point>
      <point x="344" y="129"></point>
      <point x="344" y="87" type="curve" smooth="yes"></point>
      <point x="344" y="43"></point>
      <point x="313" y="-1"></point>
    </contour>
  </outline>
</glyph>
<glyph name="less" format="1">
  <advance width="952"></advance>
  <unicode hex="003C"></unicode>
  <outline>
    <contour>
      <point x="828" y="2.45312" type="curve" smooth="yes"></point>
      <point x="33" y="375.545" type="line" smooth="yes"></point>
      <point x="25" y="379.239"></point>
      <point x="21" y="384.697"></point>
      <point x="21" y="390.171" type="curve" smooth="yes"></point>
      <point x="21" y="395.602"></point>
      <point x="25" y="401.047"></point>
      <point x="33" y="404.801" type="curve" smooth="yes"></point>
      <point x="828" y="789.194" type="line" smooth="yes"></point>
      <point x="832" y="791.369"></point>
      <point x="837" y="792.403"></point>
      <point x="840" y="792.403" type="curve" smooth="yes"></point>
      <point x="851" y="792.403"></point>
      <point x="858" y="784.128"></point>
      <point x="858" y="769.998" type="curve" smooth="yes"></point>
      <point x="858" y="707.998" type="line" smooth="yes"></point>
      <point x="858" y="685.017"></point>
      <point x="848" y="669.378"></point>
      <point x="828" y="659.741" type="curve" smooth="yes"></point>
      <point x="241" y="388.999" type="line"></point>
      <point x="827" y="128.799" type="line" smooth="yes"></point>
      <point x="848" y="119.48"></point>
      <point x="858" y="103.959"></point>
      <point x="858" y="81" type="curve" smooth="yes"></point>
      <point x="858" y="22" type="line" smooth="yes"></point>
      <point x="858" y="7.70117"></point>
      <point x="851" y="-0.655273"></point>
      <point x="840" y="-0.655273" type="curve" smooth="yes"></point>
      <point x="836" y="-0.655273"></point>
      <point x="832" y="0.347656"></point>
    </contour>
  </outline>
</glyph>
<glyph name="equal" format="1">
  <advance width="867"></advance>
  <unicode hex="003D"></unicode>
  <outline>
    <contour>
      <point x="162" y="410" type="line" smooth="yes"></point>
      <point x="140" y="410"></point>
      <point x="128" y="422.264"></point>
      <point x="128" y="444" type="curve" smooth="yes"></point>
      <point x="128" y="469" type="line" smooth="yes"></point>
      <point x="128" y="490.736"></point>
      <point x="140" y="503"></point>
      <point x="162" y="503" type="curve" smooth="yes"></point>
      <point x="704" y="503" type="line" smooth="yes"></point>
      <point x="725" y="503"></point>
      <point x="738" y="490.736"></point>
      <point x="738" y="469" type="curve" smooth="yes"></point>
      <point x="738" y="444" type="line" smooth="yes"></point>
      <point x="738" y="422.264"></point>
      <point x="725" y="410"></point>
      <point x="704" y="410" type="curve" smooth="yes"></point>
    </contour>
    <contour>
      <point x="162" y="647" type="line" smooth="yes"></point>
      <point x="140" y="647"></point>
      <point x="128" y="659.264"></point>
      <point x="128" y="681" type="curve" smooth="yes"></point>
      <point x="128" y="706" type="line" smooth="yes"></point>
      <point x="128" y="727.736"></point>
      <point x="140" y="740"></point>
      <point x="162" y="740" type="curve" smooth="yes"></point>
      <point x="704" y="740" type="line" smooth="yes"></point>
      <point x="725" y="740"></point>
      <point x="738" y="727.736"></point>
      <point x="738" y="706" type="curve" smooth="yes"></point>
      <point x="738" y="681" type="line" smooth="yes"></point>
      <point x="738" y="659.264"></point>
      <point x="725" y="647"></point>
      <point x="704" y="647" type="curve" smooth="yes"></point>
    </contour>
  </outline>
</glyph>
<glyph name="greater" format="1">
  <advance width="952"></advance>
  <unicode hex="003E"></unicode>
  <outline>
    <contour>
      <point x="119" y="2.80371" type="line" smooth="yes"></point>
      <point x="115" y="0.628906"></point>
      <point x="110" y="-0.402344"></point>
      <point x="107" y="-0.402344" type="curve" smooth="yes"></point>
      <point x="96" y="-0.402344"></point>
      <point x="89" y="7.87305"></point>
      <point x="89" y="22.0029" type="curve" smooth="yes"></point>
      <point x="89" y="84.0029" type="line" smooth="yes"></point>
      <point x="89" y="106.984"></point>
      <point x="99" y="122.623"></point>
      <point x="119" y="132.26" type="curve" smooth="yes"></point>
      <point x="706" y="403.002" type="line"></point>
      <point x="120" y="663.202" type="line" smooth="yes"></point>
      <point x="99" y="672.521"></point>
      <point x="89" y="688.042"></point>
      <point x="89" y="711.001" type="curve" smooth="yes"></point>
      <point x="89" y="770.001" type="line" smooth="yes"></point>
      <point x="89" y="784.3"></point>
      <point x="96" y="792.656"></point>
      <point x="107" y="792.656" type="curve" smooth="yes"></point>
      <point x="111" y="792.656"></point>
      <point x="115" y="791.653"></point>
      <point x="119" y="789.548" type="curve" smooth="yes"></point>
      <point x="914" y="416.453" type="line" smooth="yes"></point>
      <point x="922" y="412.759"></point>
      <point x="926" y="407.301"></point>
      <point x="926" y="401.827" type="curve" smooth="yes"></point>
      <point x="926" y="396.396"></point>
      <point x="922" y="390.951"></point>
      <point x="914" y="387.197" type="curve" smooth="yes"></point>
    </contour>
  </outline>
</glyph>
<glyph name="question" format="1">
  <advance width="816"></advance>
  <unicode hex="003F"></unicode>
  <outline>
    <contour>
      <point x="226" y="-16" type="curve" smooth="yes"></point>
      <point x="167" y="-16"></point>
      <point x="136" y="28"></point>
      <point x="136" y="72" type="curve" smooth="yes"></point>
      <point x="136" y="115"></point>
      <point x="167" y="160"></point>
      <point x="226" y="160" type="curve" smooth="yes"></point>
      <point x="283" y="160"></point>
      <point x="314" y="114"></point>
      <point x="314" y="72" type="curve" smooth="yes"></point>
      <point x="314" y="28"></point>
      <point x="283" y="-16"></point>
    </contour>
    <contour>
      <point x="227" y="348" type="line" smooth="yes"></point>
      <point x="210" y="348"></point>
      <point x="205" y="360.617"></point>
      <point x="216" y="373.234" type="curve" smooth="yes"></point>
      <point x="531" y="723.183"></point>
      <point x="608" y="812.346"></point>
      <point x="608" y="954" type="curve" smooth="yes"></point>
      <point x="608" y="1101"></point>
      <point x="493" y="1167"></point>
      <point x="375" y="1167" type="curve" smooth="yes"></point>
      <point x="281" y="1167"></point>
      <point x="196" y="1133.69"></point>
      <point x="125" y="1087.53" type="curve" smooth="yes"></point>
      <point x="107" y="1075.41"></point>
      <point x="91" y="1079.17"></point>
      <point x="80" y="1098.31" type="curve" smooth="yes"></point>
      <point x="60" y="1132.65" type="line" smooth="yes"></point>
      <point x="57" y="1138.97"></point>
      <point x="55" y="1145.45"></point>
      <point x="55" y="1151.68" type="curve" smooth="yes"></point>
      <point x="55" y="1162.77"></point>
      <point x="60" y="1173.09"></point>
      <point x="71" y="1180.4" type="curve" smooth="yes"></point>
      <point x="141" y="1228.06"></point>
      <point x="262" y="1274"></point>
      <point x="383" y="1274" type="curve" smooth="yes"></point>
      <point x="574" y="1274"></point>
      <point x="737" y="1162"></point>
      <point x="737" y="946.999" type="curve" smooth="yes"></point>
      <point x="737" y="760.624"></point>
      <point x="588" y="636.812"></point>
      <point x="329" y="372.336" type="curve" smooth="yes"></point>
      <point x="313" y="355.823"></point>
      <point x="294" y="348"></point>
      <point x="271" y="348" type="curve" smooth="yes"></point>
    </contour>
  </outline>
</glyph>
<glyph name="at" format="1">
  <advance width="1564"></advance>
  <unicode hex="0040"></unicode>
  <outline>
    <contour>
      <point x="804" y="1073.31" type="curve" smooth="yes"></point>
      <point x="505" y="1073.31"></point>
      <point x="238" y="891.736"></point>
      <point x="238" y="510.001" type="curve" smooth="yes"></point>
      <point x="238" y="136.001"></point>
      <point x="511" y="-50.999"></point>
      <point x="781" y="-50.999" type="curve" smooth="yes"></point>
      <point x="859" y="-50.999"></point>
      <point x="954" y="-34.999"></point>
      <point x="1029" y="-0.999023" type="curve"></point>
      <point x="1060" y="-89.999" type="line"></point>
      <point x="972" y="-124.999"></point>
      <point x="877" y="-142.999"></point>
      <point x="782" y="-142.999" type="curve" smooth="yes"></point>
      <point x="447" y="-142.999"></point>
      <point x="123" y="73.001"></point>
      <point x="123" y="510.001" type="curve" smooth="yes"></point>
      <point x="123" y="952.362"></point>
      <point x="454" y="1169.09"></point>
      <point x="797" y="1169.09" type="curve" smooth="yes"></point>
      <point x="1150" y="1169.09"></point>
      <point x="1440" y="956.945"></point>
      <point x="1440" y="523.002" type="curve" smooth="yes"></point>
      <point x="1440" y="315.973"></point>
      <point x="1335" y="127.372"></point>
      <point x="1162" y="127.372" type="curve" smooth="yes"></point>
      <point x="1050" y="127.372"></point>
      <point x="1005" y="183.83"></point>
      <point x="984" y="252.001" type="curve"></point>
      <point x="909" y="168.842"></point>
      <point x="831" y="119.985"></point>
      <point x="726" y="119.985" type="curve" smooth="yes"></point>
      <point x="622" y="119.985"></point>
      <point x="506" y="191.892"></point>
      <point x="506" y="341.766" type="curve" smooth="yes"></point>
      <point x="506" y="415.043"></point>
      <point x="522" y="523.025"></point>
      <point x="801" y="578.001" type="curve" smooth="yes"></point>
      <point x="959" y="609.001" type="line"></point>
      <point x="959" y="781.956"></point>
      <point x="901" y="833.522"></point>
      <point x="807" y="833.522" type="curve" smooth="yes"></point>
      <point x="742" y="833.522"></point>
      <point x="659" y="809.093"></point>
      <point x="567" y="783.001" type="curve" smooth="yes"></point>
      <point x="547" y="777.001"></point>
      <point x="531" y="780.001"></point>
      <point x="523" y="800.001" type="curve" smooth="yes"></point>
      <point x="514" y="824.001" type="line" smooth="yes"></point>
      <point x="506" y="843.001"></point>
      <point x="513" y="864.001"></point>
      <point x="532" y="870.001" type="curve" smooth="yes"></point>
      <point x="642" y="905.659"></point>
      <point x="738" y="926.869"></point>
      <point x="819" y="926.869" type="curve" smooth="yes"></point>
      <point x="988" y="926.869"></point>
      <point x="1086" y="832.178"></point>
      <point x="1086" y="579.001" type="curve" smooth="yes"></point>
      <point x="1086" y="321.001" type="line" smooth="yes"></point>
      <point x="1086" y="242.035"></point>
      <point x="1110" y="203.284"></point>
      <point x="1171" y="203.284" type="curve" smooth="yes"></point>
      <point x="1255" y="203.284"></point>
      <point x="1333" y="298.979"></point>
      <point x="1333" y="518.001" type="curve" smooth="yes"></point>
      <point x="1333" y="885.407"></point>
      <point x="1116" y="1073.31"></point>
    </contour>
    <contour>
      <point x="748" y="206.134" type="curve" smooth="yes"></point>
      <point x="813" y="206.134"></point>
      <point x="892" y="241.566"></point>
      <point x="958" y="315" type="curve"></point>
      <point x="958" y="546" type="line"></point>
      <point x="795" y="502" type="line" smooth="yes"></point>
      <point x="649" y="462.595"></point>
      <point x="615" y="403.78"></point>
      <point x="615" y="342.765" type="curve" smooth="yes"></point>
      <point x="615" y="252.995"></point>
      <point x="673" y="206.134"></point>
    </contour>
  </outline>
</glyph>
<glyph name="A" format="1">
  <advance width="1125"></advance>
  <unicode hex="0041"></unicode>
  <outline>
    <contour>
      <point x="805" y="392" type="line"></point>
      <point x="545" y="1009" type="line"></point>
      <point x="285" y="392" type="line"></point>
    </contour>
    <contour>
      <point x="25" y="0" type="line" smooth="yes"></point>
      <point x="9" y="0"></point>
      <point x="1" y="7.52734"></point>
      <point x="1" y="19.0576" type="curve" smooth="yes"></point>
      <point x="1" y="22.6797"></point>
      <point x="2" y="26.6973"></point>
      <point x="4" y="31" type="curve" smooth="yes"></point>
      <point x="533" y="1228" type="line" smooth="yes"></point>
      <point x="536" y="1235.5"></point>
      <point x="541" y="1239.25"></point>
      <point x="546" y="1239.25" type="curve" smooth="yes"></point>
      <point x="551" y="1239.25"></point>
      <point x="556" y="1235.5"></point>
      <point x="560" y="1228" type="curve" smooth="yes"></point>
      <point x="1084" y="31" type="line" smooth="yes"></point>
      <point x="1085" y="26.5371"></point>
      <point x="1086" y="22.3818"></point>
      <point x="1086" y="18.6553" type="curve" smooth="yes"></point>
      <point x="1086" y="7.35254"></point>
      <point x="1078" y="0"></point>
      <point x="1064" y="0" type="curve" smooth="yes"></point>
      <point x="1005" y="0" type="line" smooth="yes"></point>
      <point x="982" y="0"></point>
      <point x="966" y="10"></point>
      <point x="957" y="31" type="curve" smooth="yes"></point>
      <point x="844" y="299" type="line"></point>
      <point x="246" y="299" type="line"></point>
      <point x="133" y="31" type="line" smooth="yes"></point>
      <point x="124" y="10"></point>
      <point x="109" y="0"></point>
      <point x="86" y="0" type="curve" smooth="yes"></point>
    </contour>
  </outline>
</glyph>
<glyph name="B" format="1">
  <advance width="1055"></advance>
  <unicode hex="0042"></unicode>
  <outline>
    <contour>
      <point x="473" y="0" type="curve" smooth="yes"></point>
      <point x="157" y="0" type="line" smooth="yes"></point>
      <point x="135" y="0"></point>
      <point x="123" y="12"></point>
      <point x="123" y="34" type="curve" smooth="yes"></point>
      <point x="123" y="1206" type="line" smooth="yes"></point>
      <point x="123" y="1228"></point>
      <point x="135" y="1240"></point>
      <point x="157" y="1240" type="curve" smooth="yes"></point>
      <point x="442" y="1240" type="line" smooth="yes"></point>
      <point x="768" y="1240"></point>
      <point x="881" y="1134"></point>
      <point x="881" y="938" type="curve" smooth="yes"></point>
      <point x="881" y="842"></point>
      <point x="821" y="712"></point>
      <point x="663" y="676" type="curve"></point>
      <point x="828" y="651"></point>
      <point x="960" y="533"></point>
      <point x="960" y="356" type="curve" smooth="yes"></point>
      <point x="960" y="111"></point>
      <point x="802" y="0"></point>
    </contour>
    <contour>
      <point x="251" y="624" type="line"></point>
      <point x="251" y="106" type="line"></point>
      <point x="465" y="106" type="line" smooth="yes"></point>
      <point x="726" y="106"></point>
      <point x="838" y="178"></point>
      <point x="838" y="353" type="curve" smooth="yes"></point>
      <point x="838" y="522"></point>
      <point x="737" y="624"></point>
      <point x="446" y="624" type="curve" smooth="yes"></point>
    </contour>
    <contour>
      <point x="251" y="1134" type="line"></point>
      <point x="251" y="715" type="line"></point>
      <point x="433" y="715" type="line" smooth="yes"></point>
      <point x="544" y="715"></point>
      <point x="768" y="726"></point>
      <point x="768" y="940" type="curve" smooth="yes"></point>
      <point x="768" y="1103"></point>
      <point x="645" y="1134"></point>
      <point x="439" y="1134" type="curve" smooth="yes"></point>
    </contour>
  </outline>
</glyph>
<glyph name="C" format="1">
  <advance width="1326"></advance>
  <unicode hex="0043"></unicode>
  <outline>
    <contour>
      <point x="242" y="622" type="curve" smooth="yes"></point>
      <point x="242" y="270"></point>
      <point x="468" y="72"></point>
      <point x="798" y="72" type="curve" smooth="yes"></point>
      <point x="911" y="72"></point>
      <point x="1050" y="110"></point>
      <point x="1157" y="158" type="curve" smooth="yes"></point>
      <point x="1175" y="166"></point>
      <point x="1188" y="158"></point>
      <point x="1188" y="138" type="curve" smooth="yes"></point>
      <point x="1188" y="86" type="line" smooth="yes"></point>
      <point x="1188" y="64"></point>
      <point x="1177" y="48"></point>
      <point x="1157" y="39" type="curve" smooth="yes"></point>
      <point x="1078" y="6"></point>
      <point x="938" y="-34"></point>
      <point x="789" y="-34" type="curve" smooth="yes"></point>
      <point x="393" y="-34"></point>
      <point x="113" y="194"></point>
      <point x="113" y="622" type="curve" smooth="yes"></point>
      <point x="113" y="1050"></point>
      <point x="401" y="1274"></point>
      <point x="791" y="1274" type="curve" smooth="yes"></point>
      <point x="940" y="1274"></point>
      <point x="1081" y="1227"></point>
      <point x="1158" y="1188" type="curve" smooth="yes"></point>
      <point x="1177" y="1179"></point>
      <point x="1188" y="1161"></point>
      <point x="1188" y="1140" type="curve" smooth="yes"></point>
      <point x="1188" y="1095" type="line" smooth="yes"></point>
      <point x="1188" y="1076"></point>
      <point x="1175" y="1068"></point>
      <point x="1157" y="1076" type="curve" smooth="yes"></point>
      <point x="1052" y="1126"></point>
      <point x="923" y="1168"></point>
      <point x="791" y="1168" type="curve" smooth="yes"></point>
      <point x="470" y="1168"></point>
      <point x="242" y="976"></point>
    </contour>
  </outline>
</glyph>
<glyph name="D" format="1">
  <advance width="1336"></advance>
  <unicode hex="0044"></unicode>
  <outline>
    <contour>
      <point x="609" y="0" type="curve" smooth="yes"></point>
      <point x="161" y="0" type="line" smooth="yes"></point>
      <point x="139" y="0"></point>
      <point x="127" y="12"></point>
      <point x="127" y="34" type="curve" smooth="yes"></point>
      <point x="127" y="1206" type="line" smooth="yes"></point>
      <point x="127" y="1228"></point>
      <point x="139" y="1240"></point>
      <point x="161" y="1240" type="curve" smooth="yes"></point>
      <point x="639" y="1240" type="line" smooth="yes"></point>
      <point x="1052" y="1240"></point>
      <point x="1264" y="989"></point>
      <point x="1264" y="626" type="curve" smooth="yes"></point>
      <point x="1264" y="294"></point>
      <point x="1033" y="0"></point>
    </contour>
    <contour>
      <point x="255" y="1134" type="line"></point>
      <point x="255" y="106" type="line"></point>
      <point x="591" y="106" type="line" smooth="yes"></point>
      <point x="919" y="106"></point>
      <point x="1135" y="322"></point>
      <point x="1135" y="622" type="curve" smooth="yes"></point>
      <point x="1135" y="984"></point>
      <point x="936" y="1134"></point>
      <point x="641" y="1134" type="curve" smooth="yes"></point>
    </contour>
  </outline>
</glyph>
<glyph name="E" format="1">
  <advance width="914"></advance>
  <unicode hex="0045"></unicode>
  <outline>
    <contour>
      <point x="255" y="106" type="line"></point>
      <point x="823" y="106" type="line" smooth="yes"></point>
      <point x="845" y="106"></point>
      <point x="857" y="94"></point>
      <point x="857" y="72" type="curve" smooth="yes"></point>
      <point x="857" y="34" type="line" smooth="yes"></point>
      <point x="857" y="12"></point>
      <point x="845" y="0"></point>
      <point x="823" y="0" type="curve" smooth="yes"></point>
      <point x="161" y="0" type="line" smooth="yes"></point>
      <point x="139" y="0"></point>
      <point x="127" y="12"></point>
      <point x="127" y="34" type="curve" smooth="yes"></point>
      <point x="127" y="1206" type="line" smooth="yes"></point>
      <point x="127" y="1228"></point>
      <point x="139" y="1240"></point>
      <point x="161" y="1240" type="curve" smooth="yes"></point>
      <point x="813" y="1240" type="line" smooth="yes"></point>
      <point x="835" y="1240"></point>
      <point x="847" y="1228"></point>
      <point x="847" y="1206" type="curve" smooth="yes"></point>
      <point x="847" y="1168" type="line" smooth="yes"></point>
      <point x="847" y="1146"></point>
      <point x="835" y="1134"></point>
      <point x="813" y="1134" type="curve" smooth="yes"></point>
      <point x="255" y="1134" type="line"></point>
      <point x="255" y="694" type="line"></point>
      <point x="750" y="694" type="line" smooth="yes"></point>
      <point x="772" y="694"></point>
      <point x="784" y="682"></point>
      <point x="784" y="660" type="curve" smooth="yes"></point>
      <point x="784" y="622" type="line" smooth="yes"></point>
      <point x="784" y="600"></point>
      <point x="772" y="588"></point>
      <point x="750" y="588" type="curve" smooth="yes"></point>
      <point x="255" y="588" type="line"></point>
    </contour>
  </outline>
</glyph>
<glyph name="F" format="1">
  <advance width="850"></advance>
  <unicode hex="0046"></unicode>
  <outline>
    <contour>
      <point x="275" y="1134" type="line"></point>
      <point x="275" y="725" type="line"></point>
      <point x="671" y="725" type="line" smooth="yes"></point>
      <point x="693" y="725"></point>
      <point x="705" y="713"></point>
      <point x="705" y="691" type="curve" smooth="yes"></point>
      <point x="705" y="653" type="line" smooth="yes"></point>
      <point x="705" y="631"></point>
      <point x="693" y="619"></point>
      <point x="671" y="619" type="curve" smooth="yes"></point>
      <point x="275" y="619" type="line"></point>
      <point x="275" y="34" type="line" smooth="yes"></point>
      <point x="275" y="12"></point>
      <point x="263" y="0"></point>
      <point x="241" y="0" type="curve" smooth="yes"></point>
      <point x="181" y="0" type="line" smooth="yes"></point>
      <point x="159" y="0"></point>
      <point x="147" y="12"></point>
      <point x="147" y="34" type="curve" smooth="yes"></point>
      <point x="147" y="1206" type="line" smooth="yes"></point>
      <point x="147" y="1228"></point>
      <point x="159" y="1240"></point>
      <point x="181" y="1240" type="curve" smooth="yes"></point>
      <point x="737" y="1240" type="line" smooth="yes"></point>
      <point x="759" y="1240"></point>
      <point x="771" y="1228"></point>
      <point x="771" y="1206" type="curve" smooth="yes"></point>
      <point x="771" y="1168" type="line" smooth="yes"></point>
      <point x="771" y="1146"></point>
      <point x="759" y="1134"></point>
      <point x="737" y="1134" type="curve" smooth="yes"></point>
    </contour>
  </outline>
</glyph>
<glyph name="G" format="1">
  <advance width="1336"></advance>
  <unicode hex="0047"></unicode>
  <outline>
    <contour>
      <point x="1227" y="85" type="curve" smooth="yes"></point>
      <point x="1108" y="20"></point>
      <point x="997" y="-34.001"></point>
      <point x="748" y="-34.001" type="curve" smooth="yes"></point>
      <point x="429" y="-34.001"></point>
      <point x="89" y="189.999"></point>
      <point x="89" y="620.999" type="curve" smooth="yes"></point>
      <point x="89" y="1025"></point>
      <point x="393" y="1274"></point>
      <point x="760" y="1274" type="curve" smooth="yes"></point>
      <point x="909" y="1274"></point>
      <point x="1056" y="1230.16"></point>
      <point x="1136" y="1199.65" type="curve" smooth="yes"></point>
      <point x="1157" y="1191.81"></point>
      <point x="1168" y="1176.05"></point>
      <point x="1168" y="1153.94" type="curve" smooth="yes"></point>
      <point x="1168" y="1111.29" type="line" smooth="yes"></point>
      <point x="1168" y="1091.66"></point>
      <point x="1154" y="1082.96"></point>
      <point x="1136" y="1090.49" type="curve" smooth="yes"></point>
      <point x="1013" y="1141.64"></point>
      <point x="887" y="1168"></point>
      <point x="770" y="1168" type="curve" smooth="yes"></point>
      <point x="466" y="1168"></point>
      <point x="219" y="991.999"></point>
      <point x="219" y="620.999" type="curve" smooth="yes"></point>
      <point x="219" y="240.999"></point>
      <point x="491" y="72"></point>
      <point x="767" y="72" type="curve" smooth="yes"></point>
      <point x="1012" y="72"></point>
      <point x="1137" y="157"></point>
      <point x="1138" y="158" type="curve"></point>
      <point x="1138" y="555" type="line"></point>
      <point x="829" y="555" type="line" smooth="yes"></point>
      <point x="807" y="555"></point>
      <point x="795" y="567.264"></point>
      <point x="795" y="589" type="curve" smooth="yes"></point>
      <point x="795" y="626" type="line" smooth="yes"></point>
      <point x="795" y="647.736"></point>
      <point x="807" y="660"></point>
      <point x="829" y="660" type="curve" smooth="yes"></point>
      <point x="1223" y="660" type="line" smooth="yes"></point>
      <point x="1245" y="660"></point>
      <point x="1257" y="648"></point>
      <point x="1257" y="626" type="curve" smooth="yes"></point>
      <point x="1257" y="136" type="line" smooth="yes"></point>
      <point x="1257" y="113"></point>
      <point x="1247" y="96"></point>
    </contour>
  </outline>
</glyph>
<glyph name="H" format="1">
  <advance width="1326"></advance>
  <unicode hex="0048"></unicode>
  <outline>
    <contour>
      <point x="1173" y="1206" type="curve" smooth="yes"></point>
      <point x="1173" y="34" type="line" smooth="yes"></point>
      <point x="1173" y="12"></point>
      <point x="1161" y="0"></point>
      <point x="1139" y="0" type="curve" smooth="yes"></point>
      <point x="1079" y="0" type="line" smooth="yes"></point>
      <point x="1057" y="0"></point>
      <point x="1045" y="12"></point>
      <point x="1045" y="34" type="curve" smooth="yes"></point>
      <point x="1045" y="603" type="line"></point>
      <point x="280" y="603" type="line"></point>
      <point x="280" y="34" type="line" smooth="yes"></point>
      <point x="280" y="12"></point>
      <point x="268" y="0"></point>
      <point x="246" y="0" type="curve" smooth="yes"></point>
      <point x="186" y="0" type="line" smooth="yes"></point>
      <point x="164" y="0"></point>
      <point x="152" y="12"></point>
      <point x="152" y="34" type="curve" smooth="yes"></point>
      <point x="152" y="1206" type="line" smooth="yes"></point>
      <point x="152" y="1228"></point>
      <point x="164" y="1240"></point>
      <point x="186" y="1240" type="curve" smooth="yes"></point>
      <point x="246" y="1240" type="line" smooth="yes"></point>
      <point x="268" y="1240"></point>
      <point x="280" y="1228"></point>
      <point x="280" y="1206" type="curve" smooth="yes"></point>
      <point x="280" y="704" type="line"></point>
      <point x="1045" y="704" type="line"></point>
      <point x="1045" y="1206" type="line" smooth="yes"></point>
      <point x="1045" y="1228"></point>
      <point x="1057" y="1240"></point>
      <point x="1079" y="1240" type="curve" smooth="yes"></point>
      <point x="1139" y="1240" type="line" smooth="yes"></point>
      <point x="1161" y="1240"></point>
      <point x="1173" y="1228"></point>
    </contour>
  </outline>
</glyph>
<glyph name="I" format="1">
  <advance width="492"></advance>
  <unicode hex="0049"></unicode>
  <outline>
    <contour>
      <point x="309" y="1206" type="curve" smooth="yes"></point>
      <point x="309" y="34" type="line" smooth="yes"></point>
      <point x="309" y="12"></point>
      <point x="297" y="0"></point>
      <point x="275" y="0" type="curve" smooth="yes"></point>
      <point x="215" y="0" type="line" smooth="yes"></point>
      <point x="193" y="0"></point>
      <point x="181" y="12"></point>
      <point x="181" y="34" type="curve" smooth="yes"></point>
      <point x="181" y="1206" type="line" smooth="yes"></point>
      <point x="181" y="1228"></point>
      <point x="193" y="1240"></point>
      <point x="215" y="1240" type="curve" smooth="yes"></point>
      <point x="275" y="1240" type="line" smooth="yes"></point>
      <point x="297" y="1240"></point>
      <point x="309" y="1228"></point>
    </contour>
  </outline>
</glyph>
<glyph name="J" format="1">
  <advance width="703"></advance>
  <unicode hex="004A"></unicode>
  <outline>
    <contour>
      <point x="183" y="-74" type="curve" smooth="yes"></point>
      <point x="175" y="-74.6846"></point>
      <point x="169" y="-75.0459"></point>
      <point x="164" y="-75.0459" type="curve" smooth="yes"></point>
      <point x="138" y="-75.0459"></point>
      <point x="131" y="-66.5488"></point>
      <point x="127" y="-44.999" type="curve" smooth="yes"></point>
      <point x="119" y="-5.99902" type="line" smooth="yes"></point>
      <point x="118" y="-2.45996"></point>
      <point x="118" y="0.708008"></point>
      <point x="118" y="3.5459" type="curve" smooth="yes"></point>
      <point x="118" y="21.5596"></point>
      <point x="132" y="26.2725"></point>
      <point x="158" y="28" type="curve" smooth="yes"></point>
      <point x="366" y="43"></point>
      <point x="451" y="166"></point>
      <point x="451" y="429" type="curve" smooth="yes"></point>
      <point x="451" y="1206" type="line" smooth="yes"></point>
      <point x="451" y="1228"></point>
      <point x="463" y="1240"></point>
      <point x="485" y="1240" type="curve" smooth="yes"></point>
      <point x="545" y="1240" type="line" smooth="yes"></point>
      <point x="566" y="1240"></point>
      <point x="579" y="1228"></point>
      <point x="579" y="1206" type="curve" smooth="yes"></point>
      <point x="579" y="446" type="line" smooth="yes"></point>
      <point x="579" y="124"></point>
      <point x="482" y="-45"></point>
    </contour>
  </outline>
</glyph>
<glyph name="K" format="1">
  <advance width="1088"></advance>
  <unicode hex="004B"></unicode>
  <outline>
    <contour>
      <point x="266" y="1206" type="curve" smooth="yes"></point>
      <point x="266" y="674.439" type="line"></point>
      <point x="831" y="1216" type="line" smooth="yes"></point>
      <point x="847" y="1232"></point>
      <point x="866" y="1240"></point>
      <point x="889" y="1240" type="curve" smooth="yes"></point>
      <point x="979" y="1240" type="line" smooth="yes"></point>
      <point x="995" y="1240"></point>
      <point x="1000" y="1228"></point>
      <point x="989" y="1216" type="curve"></point>
      <point x="387" y="642.001" type="line"></point>
      <point x="1035" y="23.7256" type="line" smooth="yes"></point>
      <point x="1040" y="19.4307"></point>
      <point x="1042" y="15.0332"></point>
      <point x="1042" y="11.209" type="curve" smooth="yes"></point>
      <point x="1042" y="4.79883"></point>
      <point x="1036" y="0"></point>
      <point x="1026" y="0" type="curve" smooth="yes"></point>
      <point x="933" y="0" type="line" smooth="yes"></point>
      <point x="910" y="0"></point>
      <point x="891" y="7.68457"></point>
      <point x="874" y="23.7256" type="curve" smooth="yes"></point>
      <point x="266" y="605.573" type="line"></point>
      <point x="266" y="34" type="line" smooth="yes"></point>
      <point x="266" y="12"></point>
      <point x="254" y="0"></point>
      <point x="232" y="0" type="curve" smooth="yes"></point>
      <point x="172" y="0" type="line" smooth="yes"></point>
      <point x="150" y="0"></point>
      <point x="138" y="12"></point>
      <point x="138" y="34" type="curve" smooth="yes"></point>
      <point x="138" y="1206" type="line" smooth="yes"></point>
      <point x="138" y="1228"></point>
      <point x="150" y="1240"></point>
      <point x="172" y="1240" type="curve" smooth="yes"></point>
      <point x="232" y="1240" type="line" smooth="yes"></point>
      <point x="254" y="1240"></point>
      <point x="266" y="1228"></point>
    </contour>
  </outline>
</glyph>
<glyph name="L" format="1">
  <advance width="914"></advance>
  <unicode hex="004C"></unicode>
  <outline>
    <contour>
      <point x="260" y="1206" type="curve" smooth="yes"></point>
      <point x="260" y="106" type="line"></point>
      <point x="771" y="106" type="line" smooth="yes"></point>
      <point x="793" y="106"></point>
      <point x="805" y="93.7363"></point>
      <point x="805" y="72" type="curve" smooth="yes"></point>
      <point x="805" y="34" type="line" smooth="yes"></point>
      <point x="805" y="12.2637"></point>
      <point x="793" y="0"></point>
      <point x="771" y="0" type="curve" smooth="yes"></point>
      <point x="166" y="0" type="line" smooth="yes"></point>
      <point x="144" y="0"></point>
      <point x="132" y="12"></point>
      <point x="132" y="34" type="curve" smooth="yes"></point>
      <point x="132" y="1206" type="line" smooth="yes"></point>
      <point x="132" y="1228"></point>
      <point x="144" y="1240"></point>
      <point x="166" y="1240" type="curve" smooth="yes"></point>
      <point x="226" y="1240" type="line" smooth="yes"></point>
      <point x="248" y="1240"></point>
      <point x="260" y="1228"></point>
    </contour>
  </outline>
</glyph>
<glyph name="M" format="1">
  <advance width="1618"></advance>
  <unicode hex="004D"></unicode>
  <outline>
    <contour>
      <point x="98" y="0" type="line" smooth="yes"></point>
      <point x="79" y="0"></point>
      <point x="69" y="9.69434"></point>
      <point x="69" y="25.8633" type="curve" smooth="yes"></point>
      <point x="69" y="28.418"></point>
      <point x="69" y="31.1338"></point>
      <point x="69" y="33.999" type="curve" smooth="yes"></point>
      <point x="262" y="1241" type="line" smooth="yes"></point>
      <point x="264" y="1249.8"></point>
      <point x="267" y="1254.36"></point>
      <point x="272" y="1254.36" type="curve" smooth="yes"></point>
      <point x="276" y="1254.36"></point>
      <point x="280" y="1251.3"></point>
      <point x="283" y="1245" type="curve" smooth="yes"></point>
      <point x="819" y="265.998" type="line"></point>
      <point x="1354" y="1245" type="line" smooth="yes"></point>
      <point x="1357" y="1251.3"></point>
      <point x="1362" y="1254.36"></point>
      <point x="1365" y="1254.36" type="curve" smooth="yes"></point>
      <point x="1370" y="1254.36"></point>
      <point x="1374" y="1249.8"></point>
      <point x="1376" y="1241" type="curve" smooth="yes"></point>
      <point x="1569" y="33.999" type="line" smooth="yes"></point>
      <point x="1569" y="31.1338"></point>
      <point x="1569" y="28.418"></point>
      <point x="1569" y="25.8633" type="curve" smooth="yes"></point>
      <point x="1569" y="9.69434"></point>
      <point x="1559" y="0"></point>
      <point x="1541" y="0" type="curve" smooth="yes"></point>
      <point x="1483" y="0" type="line" smooth="yes"></point>
      <point x="1460" y="0"></point>
      <point x="1447" y="11.999"></point>
      <point x="1444" y="33.999" type="curve" smooth="yes"></point>
      <point x="1309" y="928" type="line"></point>
      <point x="836" y="58" type="line" smooth="yes"></point>
      <point x="827" y="42"></point>
      <point x="812" y="42"></point>
      <point x="803" y="58" type="curve" smooth="yes"></point>
      <point x="330" y="928" type="line"></point>
      <point x="195" y="33.999" type="line" smooth="yes"></point>
      <point x="192" y="11.999"></point>
      <point x="179" y="0"></point>
      <point x="156" y="0" type="curve" smooth="yes"></point>
    </contour>
  </outline>
</glyph>
<glyph name="N" format="1">
  <advance width="1343"></advance>
  <unicode hex="004E"></unicode>
  <outline>
    <contour>
      <point x="280" y="34" type="line" smooth="yes"></point>
      <point x="280" y="12.2637"></point>
      <point x="267" y="0"></point>
      <point x="246" y="0" type="curve" smooth="yes"></point>
      <point x="186" y="0" type="line" smooth="yes"></point>
      <point x="164" y="0"></point>
      <point x="152" y="12.2637"></point>
      <point x="152" y="34" type="curve" smooth="yes"></point>
      <point x="152" y="1229" type="line" smooth="yes"></point>
      <point x="152" y="1239.04"></point>
      <point x="156" y="1244.67"></point>
      <point x="162" y="1244.67" type="curve" smooth="yes"></point>
      <point x="166" y="1244.67"></point>
      <point x="170" y="1242.55"></point>
      <point x="175" y="1238.02" type="curve" smooth="yes"></point>
      <point x="1069" y="270" type="line"></point>
      <point x="1069" y="1206" type="line" smooth="yes"></point>
      <point x="1069" y="1228"></point>
      <point x="1081" y="1240"></point>
      <point x="1103" y="1240" type="curve" smooth="yes"></point>
      <point x="1163" y="1240" type="line" smooth="yes"></point>
      <point x="1185" y="1240"></point>
      <point x="1197" y="1228"></point>
      <point x="1197" y="1206" type="curve" smooth="yes"></point>
      <point x="1197" y="3" type="line" smooth="yes"></point>
      <point x="1197" y="-7.06641"></point>
      <point x="1192" y="-12.7168"></point>
      <point x="1186" y="-12.7168" type="curve" smooth="yes"></point>
      <point x="1182" y="-12.7168"></point>
      <point x="1178" y="-10.6025"></point>
      <point x="1173" y="-6.0918" type="curve" smooth="yes"></point>
      <point x="280" y="956" type="line"></point>
    </contour>
  </outline>
</glyph>
<glyph name="O" format="1">
  <advance width="1530"></advance>
  <unicode hex="004F"></unicode>
  <outline>
    <contour>
      <point x="109" y="619" type="curve" smooth="yes"></point>
      <point x="109" y="1058"></point>
      <point x="433" y="1274"></point>
      <point x="767" y="1274" type="curve" smooth="yes"></point>
      <point x="1103" y="1274"></point>
      <point x="1428" y="1058"></point>
      <point x="1428" y="623" type="curve" smooth="yes"></point>
      <point x="1428" y="182"></point>
      <point x="1103" y="-34"></point>
      <point x="768" y="-34" type="curve" smooth="yes"></point>
      <point x="433" y="-34"></point>
      <point x="109" y="182"></point>
    </contour>
    <contour>
      <point x="1299" y="618" type="curve" smooth="yes"></point>
      <point x="1299" y="994"></point>
      <point x="1048" y="1168"></point>
      <point x="767" y="1168" type="curve" smooth="yes"></point>
      <point x="484" y="1168"></point>
      <point x="238" y="994"></point>
      <point x="238" y="619" type="curve" smooth="yes"></point>
      <point x="238" y="245"></point>
      <point x="497" y="72"></point>
      <point x="767" y="72" type="curve" smooth="yes"></point>
      <point x="1021" y="72"></point>
      <point x="1299" y="246"></point>
    </contour>
  </outline>
</glyph>
<glyph name="P" format="1">
  <advance width="1037"></advance>
  <unicode hex="0050"></unicode>
  <outline>
    <contour>
      <point x="280" y="525" type="line"></point>
      <point x="280" y="34" type="line" smooth="yes"></point>
      <point x="280" y="12"></point>
      <point x="268" y="0"></point>
      <point x="246" y="0" type="curve" smooth="yes"></point>
      <point x="186" y="0" type="line" smooth="yes"></point>
      <point x="164" y="0"></point>
      <point x="152" y="12"></point>
      <point x="152" y="34" type="curve" smooth="yes"></point>
      <point x="152" y="1206" type="line" smooth="yes"></point>
      <point x="152" y="1228"></point>
      <point x="164" y="1240"></point>
      <point x="186" y="1240" type="curve" smooth="yes"></point>
      <point x="473" y="1240" type="line" smooth="yes"></point>
      <point x="776" y="1240"></point>
      <point x="948" y="1127"></point>
      <point x="948" y="887" type="curve" smooth="yes"></point>
      <point x="948" y="606"></point>
      <point x="750" y="525"></point>
      <point x="469" y="525" type="curve" smooth="yes"></point>
    </contour>
    <contour>
      <point x="280" y="1138" type="line"></point>
      <point x="280" y="627" type="line"></point>
      <point x="483" y="627" type="line" smooth="yes"></point>
      <point x="689" y="627"></point>
      <point x="820" y="691"></point>
      <point x="820" y="882" type="curve" smooth="yes"></point>
      <point x="820" y="1032"></point>
      <point x="731" y="1138"></point>
      <point x="478" y="1138" type="curve" smooth="yes"></point>
    </contour>
  </outline>
</glyph>
<glyph name="Q" format="1">
  <advance width="1477"></advance>
  <unicode hex="0051"></unicode>
  <outline>
    <contour>
      <point x="1051" y="164.979" type="line"></point>
      <point x="1179" y="252.082"></point>
      <point x="1274" y="401.512"></point>
      <point x="1274" y="618" type="curve" smooth="yes"></point>
      <point x="1274" y="994"></point>
      <point x="1023" y="1168"></point>
      <point x="741" y="1168" type="curve" smooth="yes"></point>
      <point x="458" y="1168"></point>
      <point x="212" y="994"></point>
      <point x="212" y="619" type="curve" smooth="yes"></point>
      <point x="212" y="245"></point>
      <point x="471" y="72"></point>
      <point x="741" y="72" type="curve" smooth="yes"></point>
      <point x="810" y="72"></point>
      <point x="881" y="84.7627"></point>
      <point x="947" y="110.765" type="curve"></point>
      <point x="886" y="210" type="line"></point>
      <point x="872" y="229"></point>
      <point x="875" y="248"></point>
      <point x="893" y="263" type="curve" smooth="yes"></point>
      <point x="915" y="280" type="line" smooth="yes"></point>
      <point x="934" y="295"></point>
      <point x="952" y="293"></point>
      <point x="966" y="275" type="curve" smooth="yes"></point>
    </contour>
    <contour>
      <point x="1190" y="-206" type="line" smooth="yes"></point>
      <point x="1181" y="-210.622"></point>
      <point x="1174" y="-213.019"></point>
      <point x="1167" y="-213.019" type="curve" smooth="yes"></point>
      <point x="1155" y="-213.019"></point>
      <point x="1145" y="-206.911"></point>
      <point x="1137" y="-194" type="curve" smooth="yes"></point>
      <point x="1007" y="14.0898" type="line"></point>
      <point x="924" y="-18.0303"></point>
      <point x="834" y="-34"></point>
      <point x="743" y="-34" type="curve" smooth="yes"></point>
      <point x="408" y="-34"></point>
      <point x="84" y="182"></point>
      <point x="84" y="619" type="curve" smooth="yes"></point>
      <point x="84" y="1058"></point>
      <point x="407" y="1274"></point>
      <point x="741" y="1274" type="curve" smooth="yes"></point>
      <point x="1078" y="1274"></point>
      <point x="1403" y="1058"></point>
      <point x="1403" y="623" type="curve" smooth="yes"></point>
      <point x="1403" y="359.925"></point>
      <point x="1287" y="176.919"></point>
      <point x="1122" y="72.0713" type="curve"></point>
      <point x="1266" y="-113" type="line" smooth="yes"></point>
      <point x="1279" y="-129"></point>
      <point x="1277" y="-148"></point>
      <point x="1257" y="-159" type="curve"></point>
    </contour>
  </outline>
</glyph>
<glyph name="R" format="1">
  <advance width="1003"></advance>
  <unicode hex="0052"></unicode>
  <outline>
    <contour>
      <point x="270" y="1134" type="line"></point>
      <point x="270" y="679" type="line"></point>
      <point x="385" y="679" type="line" smooth="yes"></point>
      <point x="639" y="679"></point>
      <point x="768" y="717"></point>
      <point x="768" y="908" type="curve" smooth="yes"></point>
      <point x="768" y="1058"></point>
      <point x="683" y="1134"></point>
      <point x="430" y="1134" type="curve" smooth="yes"></point>
    </contour>
    <contour>
      <point x="841" y="0" type="line" smooth="yes"></point>
      <point x="818" y="0"></point>
      <point x="799" y="8"></point>
      <point x="784" y="26" type="curve"></point>
      <point x="270" y="570.931" type="line"></point>
      <point x="270" y="34" type="line" smooth="yes"></point>
      <point x="270" y="12"></point>
      <point x="258" y="0"></point>
      <point x="236" y="0" type="curve" smooth="yes"></point>
      <point x="176" y="0" type="line" smooth="yes"></point>
      <point x="154" y="0"></point>
      <point x="142" y="12"></point>
      <point x="142" y="34" type="curve" smooth="yes"></point>
      <point x="142" y="1206" type="line" smooth="yes"></point>
      <point x="142" y="1228"></point>
      <point x="154" y="1240"></point>
      <point x="176" y="1240" type="curve" smooth="yes"></point>
      <point x="425" y="1240" type="line" smooth="yes"></point>
      <point x="728" y="1240"></point>
      <point x="896" y="1134"></point>
      <point x="896" y="913" type="curve" smooth="yes"></point>
      <point x="896" y="667"></point>
      <point x="726" y="575"></point>
      <point x="409" y="575" type="curve" smooth="yes"></point>
      <point x="409" y="575" type="line"></point>
      <point x="940" y="25" type="line" smooth="yes"></point>
      <point x="945" y="20.7002"></point>
      <point x="947" y="16.2725"></point>
      <point x="947" y="12.3604" type="curve" smooth="yes"></point>
      <point x="947" y="5.35352"></point>
      <point x="940" y="0"></point>
      <point x="930" y="0" type="curve" smooth="yes"></point>
    </contour>
  </outline>
</glyph>
<glyph name="S" format="1">
  <advance width="914"></advance>
  <unicode hex="0053"></unicode>
  <outline>
    <contour>
      <point x="457" y="-34" type="curve" smooth="yes"></point>
      <point x="286" y="-34"></point>
      <point x="179" y="12"></point>
      <point x="117" y="48" type="curve" smooth="yes"></point>
      <point x="97" y="59"></point>
      <point x="87" y="76"></point>
      <point x="87" y="98" type="curve" smooth="yes"></point>
      <point x="87" y="148" type="line" smooth="yes"></point>
      <point x="87" y="167"></point>
      <point x="100" y="174"></point>
      <point x="116" y="165" type="curve" smooth="yes"></point>
      <point x="207" y="110"></point>
      <point x="314" y="72"></point>
      <point x="454" y="72" type="curve" smooth="yes"></point>
      <point x="623" y="72"></point>
      <point x="707" y="156"></point>
      <point x="707" y="274" type="curve" smooth="yes"></point>
      <point x="707" y="359"></point>
      <point x="659" y="445"></point>
      <point x="536" y="517" type="curve" smooth="yes"></point>
      <point x="256" y="680" type="line" smooth="yes"></point>
      <point x="128" y="755"></point>
      <point x="55" y="852"></point>
      <point x="55" y="968" type="curve" smooth="yes"></point>
      <point x="55" y="1136"></point>
      <point x="184" y="1274"></point>
      <point x="439" y="1274" type="curve" smooth="yes"></point>
      <point x="569" y="1274"></point>
      <point x="673" y="1244"></point>
      <point x="736" y="1218" type="curve" smooth="yes"></point>
      <point x="757" y="1209"></point>
      <point x="767" y="1193"></point>
      <point x="767" y="1171" type="curve" smooth="yes"></point>
      <point x="767" y="1122.6" type="line" smooth="yes"></point>
      <point x="767" y="1103.1"></point>
      <point x="754" y="1094.88"></point>
      <point x="736" y="1103.02" type="curve" smooth="yes"></point>
      <point x="649" y="1143.25"></point>
      <point x="544" y="1168"></point>
      <point x="453" y="1168" type="curve" smooth="yes"></point>
      <point x="262" y="1168"></point>
      <point x="178" y="1082"></point>
      <point x="178" y="975" type="curve" smooth="yes"></point>
      <point x="178" y="891"></point>
      <point x="228" y="831"></point>
      <point x="327" y="772" type="curve" smooth="yes"></point>
      <point x="596" y="613" type="line" smooth="yes"></point>
      <point x="787" y="500"></point>
      <point x="832" y="398"></point>
      <point x="832" y="281" type="curve" smooth="yes"></point>
      <point x="832" y="63"></point>
      <point x="648" y="-34"></point>
    </contour>
  </outline>
</glyph>
<glyph name="T" format="1">
  <advance width="1055"></advance>
  <unicode hex="0054"></unicode>
  <outline>
    <contour>
      <point x="727" y="1134" type="line"></point>
      <point x="727" y="34" type="line" smooth="yes"></point>
      <point x="727" y="12"></point>
      <point x="715" y="0"></point>
      <point x="693" y="0" type="curve" smooth="yes"></point>
      <point x="633" y="0" type="line" smooth="yes"></point>
      <point x="611" y="0"></point>
      <point x="599" y="12"></point>
      <point x="599" y="34" type="curve" smooth="yes"></point>
      <point x="599" y="1134" type="line"></point>
      <point x="239" y="1134" type="line" smooth="yes"></point>
      <point x="217" y="1134"></point>
      <point x="205" y="1146"></point>
      <point x="205" y="1168" type="curve" smooth="yes"></point>
      <point x="205" y="1206" type="line" smooth="yes"></point>
      <point x="205" y="1228"></point>
      <point x="217" y="1240"></point>
      <point x="239" y="1240" type="curve" smooth="yes"></point>
      <point x="1089" y="1240" type="line" smooth="yes"></point>
      <point x="1111" y="1240"></point>
      <point x="1123" y="1228"></point>
      <point x="1123" y="1206" type="curve" smooth="yes"></point>
      <point x="1123" y="1168" type="line" smooth="yes"></point>
      <point x="1123" y="1146"></point>
      <point x="1111" y="1134"></point>
      <point x="1089" y="1134" type="curve" smooth="yes"></point>
    </contour>
  </outline>
</glyph>
<glyph name="U" format="1">
  <advance width="1360"></advance>
  <unicode hex="0055"></unicode>
  <outline>
    <contour>
      <point x="676" y="72" type="curve" smooth="yes"></point>
      <point x="927" y="72"></point>
      <point x="1096" y="193"></point>
      <point x="1096" y="480" type="curve" smooth="yes"></point>
      <point x="1096" y="1206" type="line" smooth="yes"></point>
      <point x="1096" y="1228"></point>
      <point x="1108" y="1240"></point>
      <point x="1130" y="1240" type="curve" smooth="yes"></point>
      <point x="1190" y="1240" type="line" smooth="yes"></point>
      <point x="1212" y="1240"></point>
      <point x="1224" y="1228"></point>
      <point x="1224" y="1206" type="curve" smooth="yes"></point>
      <point x="1224" y="493" type="line" smooth="yes"></point>
      <point x="1224" y="142"></point>
      <point x="1013" y="-34"></point>
      <point x="676" y="-34" type="curve" smooth="yes"></point>
      <point x="339" y="-34"></point>
      <point x="128" y="142"></point>
      <point x="128" y="493" type="curve" smooth="yes"></point>
      <point x="128" y="1206" type="line" smooth="yes"></point>
      <point x="128" y="1228"></point>
      <point x="140" y="1240"></point>
      <point x="162" y="1240" type="curve" smooth="yes"></point>
      <point x="222" y="1240" type="line" smooth="yes"></point>
      <point x="244" y="1240"></point>
      <point x="256" y="1228"></point>
      <point x="256" y="1206" type="curve" smooth="yes"></point>
      <point x="256" y="480" type="line" smooth="yes"></point>
      <point x="256" y="193"></point>
      <point x="425" y="72"></point>
    </contour>
  </outline>
</glyph>
<glyph name="V" format="1">
  <advance width="986"></advance>
  <unicode hex="0056"></unicode>
  <outline>
    <contour>
      <point x="484" y="12.7773" type="curve" smooth="yes"></point>
      <point x="-77" y="1209" type="line" smooth="yes"></point>
      <point x="-80" y="1213.65"></point>
      <point x="-80" y="1217.97"></point>
      <point x="-80" y="1221.81" type="curve" smooth="yes"></point>
      <point x="-80" y="1232.85"></point>
      <point x="-72" y="1240"></point>
      <point x="-57" y="1240" type="curve" smooth="yes"></point>
      <point x="11" y="1240" type="line" smooth="yes"></point>
      <point x="34" y="1240"></point>
      <point x="49" y="1230"></point>
      <point x="59" y="1209" type="curve" smooth="yes"></point>
      <point x="498" y="247.999" type="line"></point>
      <point x="909" y="1209" type="line" smooth="yes"></point>
      <point x="918" y="1230"></point>
      <point x="934" y="1240"></point>
      <point x="957" y="1240" type="curve" smooth="yes"></point>
      <point x="1032" y="1240" type="line" smooth="yes"></point>
      <point x="1046" y="1240"></point>
      <point x="1054" y="1232.65"></point>
      <point x="1054" y="1221.34" type="curve" smooth="yes"></point>
      <point x="1054" y="1217.62"></point>
      <point x="1054" y="1213.46"></point>
      <point x="1052" y="1209" type="curve" smooth="yes"></point>
      <point x="512" y="13" type="line" smooth="yes"></point>
      <point x="509" y="5.17773"></point>
      <point x="503" y="1.25977"></point>
      <point x="498" y="1.25977" type="curve" smooth="yes"></point>
      <point x="493" y="1.25977"></point>
      <point x="487" y="5.09473"></point>
    </contour>
  </outline>
</glyph>
<glyph name="W" format="1">
  <advance width="1411"></advance>
  <unicode hex="0057"></unicode>
  <outline>
    <contour>
      <point x="357" y="11" type="curve" smooth="yes"></point>
      <point x="-130" y="1209" type="line" smooth="yes"></point>
      <point x="-132" y="1213.11"></point>
      <point x="-133" y="1216.97"></point>
      <point x="-133" y="1220.46" type="curve" smooth="yes"></point>
      <point x="-133" y="1232.26"></point>
      <point x="-124" y="1240"></point>
      <point x="-109" y="1240" type="curve" smooth="yes"></point>
      <point x="-40" y="1240" type="line" smooth="yes"></point>
      <point x="-17" y="1240"></point>
      <point x="-2" y="1230"></point>
      <point x="6" y="1208" type="curve" smooth="yes"></point>
      <point x="365" y="287" type="line"></point>
      <point x="691" y="1190" type="line" smooth="yes"></point>
      <point x="697" y="1205"></point>
      <point x="710" y="1205"></point>
      <point x="716" y="1190" type="curve" smooth="yes"></point>
      <point x="1070" y="287" type="line"></point>
      <point x="1400" y="1208" type="line" smooth="yes"></point>
      <point x="1407" y="1230"></point>
      <point x="1422" y="1240"></point>
      <point x="1445" y="1240" type="curve" smooth="yes"></point>
      <point x="1520" y="1240" type="line" smooth="yes"></point>
      <point x="1535" y="1240"></point>
      <point x="1544" y="1232.23"></point>
      <point x="1544" y="1219.92" type="curve" smooth="yes"></point>
      <point x="1544" y="1216.31"></point>
      <point x="1543" y="1212.31"></point>
      <point x="1542" y="1208" type="curve" smooth="yes"></point>
      <point x="1087" y="13" type="line" smooth="yes"></point>
      <point x="1084" y="5.5"></point>
      <point x="1079" y="1.75"></point>
      <point x="1074" y="1.75" type="curve" smooth="yes"></point>
      <point x="1069" y="1.75"></point>
      <point x="1065" y="5.5"></point>
      <point x="1062" y="13" type="curve" smooth="yes"></point>
      <point x="705" y="901" type="line"></point>
      <point x="382" y="12" type="line" smooth="yes"></point>
      <point x="378" y="4.37109"></point>
      <point x="374" y="0.62207"></point>
      <point x="369" y="0.62207" type="curve" smooth="yes"></point>
      <point x="364" y="0.62207"></point>
      <point x="359" y="4.12109"></point>
    </contour>
  </outline>
</glyph>
<glyph name="X" format="1">
  <advance width="1241"></advance>
  <unicode hex="0058"></unicode>
  <outline>
    <contour>
      <point x="1147" y="0" type="line" smooth="yes"></point>
      <point x="1124" y="0"></point>
      <point x="1106" y="8.07324"></point>
      <point x="1090" y="25.0508" type="curve" smooth="yes"></point>
      <point x="610" y="548.05" type="line"></point>
      <point x="155" y="25.6387" type="line" smooth="yes"></point>
      <point x="139" y="8.24121"></point>
      <point x="121" y="0"></point>
      <point x="98" y="0" type="curve" smooth="yes"></point>
      <point x="4" y="0" type="line" smooth="yes"></point>
      <point x="-6" y="0"></point>
      <point x="-12" y="5.40234"></point>
      <point x="-12" y="12.6953" type="curve" smooth="yes"></point>
      <point x="-12" y="16.626"></point>
      <point x="-10" y="21.1064"></point>
      <point x="-6" y="25.5869" type="curve" smooth="yes"></point>
      <point x="528" y="637.084" type="line"></point>
      <point x="-1" y="1215" type="line" smooth="yes"></point>
      <point x="-6" y="1219.3"></point>
      <point x="-8" y="1223.73"></point>
      <point x="-8" y="1227.64" type="curve" smooth="yes"></point>
      <point x="-8" y="1234.65"></point>
      <point x="-1" y="1240"></point>
      <point x="9" y="1240" type="curve" smooth="yes"></point>
      <point x="84" y="1240" type="line" smooth="yes"></point>
      <point x="107" y="1240"></point>
      <point x="125" y="1232"></point>
      <point x="141" y="1215" type="curve" smooth="yes"></point>
      <point x="600" y="718.836" type="line"></point>
      <point x="1034" y="1214" type="line" smooth="yes"></point>
      <point x="1049" y="1232"></point>
      <point x="1068" y="1240"></point>
      <point x="1091" y="1240" type="curve" smooth="yes"></point>
      <point x="1180" y="1240" type="line" smooth="yes"></point>
      <point x="1197" y="1240"></point>
      <point x="1203" y="1227"></point>
      <point x="1191" y="1214" type="curve" smooth="yes"></point>
      <point x="682" y="630.355" type="line"></point>
      <point x="1242" y="24.959" type="line" smooth="yes"></point>
      <point x="1246" y="20.4814"></point>
      <point x="1248" y="15.9941"></point>
      <point x="1248" y="12.084" type="curve" smooth="yes"></point>
      <point x="1248" y="5.12891"></point>
      <point x="1242" y="0"></point>
      <point x="1231" y="0" type="curve" smooth="yes"></point>
    </contour>
  </outline>
</glyph>
<glyph name="Y" format="1">
  <advance width="844"></advance>
  <unicode hex="0059"></unicode>
  <outline>
    <contour>
      <point x="478" y="33.999" type="line" smooth="yes"></point>
      <point x="478" y="12.2627"></point>
      <point x="466" y="-0.000976562"></point>
      <point x="444" y="-0.000976562" type="curve" smooth="yes"></point>
      <point x="384" y="-0.000976562" type="line" smooth="yes"></point>
      <point x="362" y="-0.000976562"></point>
      <point x="350" y="12.2627"></point>
      <point x="350" y="33.999" type="curve" smooth="yes"></point>
      <point x="350" y="478.999" type="line"></point>
      <point x="-58" y="1210" type="line" smooth="yes"></point>
      <point x="-60" y="1214.78"></point>
      <point x="-61" y="1219.24"></point>
      <point x="-61" y="1223.18" type="curve" smooth="yes"></point>
      <point x="-61" y="1233.28"></point>
      <point x="-54" y="1240"></point>
      <point x="-41" y="1240" type="curve" smooth="yes"></point>
      <point x="17" y="1240" type="line" smooth="yes"></point>
      <point x="40" y="1240"></point>
      <point x="57" y="1230"></point>
      <point x="68" y="1210" type="curve" smooth="yes"></point>
      <point x="416" y="592" type="line"></point>
      <point x="740" y="1210" type="line" smooth="yes"></point>
      <point x="750" y="1230"></point>
      <point x="766" y="1240"></point>
      <point x="789" y="1240" type="curve" smooth="yes"></point>
      <point x="857" y="1240" type="line" smooth="yes"></point>
      <point x="871" y="1240"></point>
      <point x="879" y="1233.23"></point>
      <point x="879" y="1223.07" type="curve" smooth="yes"></point>
      <point x="879" y="1219.16"></point>
      <point x="878" y="1214.73"></point>
      <point x="875" y="1210" type="curve" smooth="yes"></point>
      <point x="478" y="475" type="line"></point>
    </contour>
  </outline>
</glyph>
<glyph name="Z" format="1">
  <advance width="816"></advance>
  <unicode hex="005A"></unicode>
  <outline>
    <contour>
      <point x="72" y="0" type="line" smooth="yes"></point>
      <point x="58" y="0"></point>
      <point x="50" y="6.96777"></point>
      <point x="50" y="17.3701" type="curve" smooth="yes"></point>
      <point x="50" y="21.1777"></point>
      <point x="51" y="25.4453"></point>
      <point x="54" y="30" type="curve" smooth="yes"></point>
      <point x="633" y="1134" type="line"></point>
      <point x="105" y="1134" type="line" smooth="yes"></point>
      <point x="84" y="1134"></point>
      <point x="71" y="1146"></point>
      <point x="71" y="1168" type="curve" smooth="yes"></point>
      <point x="71" y="1206" type="line" smooth="yes"></point>
      <point x="71" y="1228"></point>
      <point x="84" y="1240"></point>
      <point x="105" y="1240" type="curve" smooth="yes"></point>
      <point x="786" y="1240" type="line" smooth="yes"></point>
      <point x="805" y="1240"></point>
      <point x="814" y="1227"></point>
      <point x="805" y="1210" type="curve" smooth="yes"></point>
      <point x="234" y="106" type="line"></point>
      <point x="794" y="106" type="line" smooth="yes"></point>
      <point x="816" y="106"></point>
      <point x="828" y="94"></point>
      <point x="828" y="72" type="curve" smooth="yes"></point>
      <point x="828" y="34" type="line" smooth="yes"></point>
      <point x="828" y="12"></point>
      <point x="816" y="0"></point>
      <point x="794" y="0" type="curve" smooth="yes"></point>
    </contour>
  </outline>
</glyph>
<glyph name="bracketleft" format="1">
  <advance width="714"></advance>
  <unicode hex="005B"></unicode>
  <outline>
    <contour>
      <point x="186" y="-142" type="line" smooth="yes"></point>
      <point x="164" y="-142"></point>
      <point x="152" y="-130"></point>
      <point x="152" y="-108" type="curve" smooth="yes"></point>
      <point x="152" y="1206" type="line" smooth="yes"></point>
      <point x="152" y="1228"></point>
      <point x="164" y="1240"></point>
      <point x="186" y="1240" type="curve" smooth="yes"></point>
      <point x="618" y="1240" type="line" smooth="yes"></point>
      <point x="640" y="1240"></point>
      <point x="652" y="1228"></point>
      <point x="652" y="1206" type="curve" smooth="yes"></point>
      <point x="652" y="1168" type="line" smooth="yes"></point>
      <point x="652" y="1146"></point>
      <point x="640" y="1134"></point>
      <point x="618" y="1134" type="curve" smooth="yes"></point>
      <point x="280" y="1134" type="line"></point>
      <point x="280" y="-36" type="line"></point>
      <point x="618" y="-36" type="line" smooth="yes"></point>
      <point x="640" y="-36"></point>
      <point x="652" y="-48"></point>
      <point x="652" y="-70" type="curve" smooth="yes"></point>
      <point x="652" y="-108" type="line" smooth="yes"></point>
      <point x="652" y="-130"></point>
      <point x="640" y="-142"></point>
      <point x="618" y="-142" type="curve" smooth="yes"></point>
    </contour>
  </outline>
</glyph>
<glyph name="backslash" format="1">
  <advance width="773"></advance>
  <unicode hex="005C"></unicode>
  <outline>
    <contour>
      <point x="593" y="0" type="line" smooth="yes"></point>
      <point x="570" y="0"></point>
      <point x="554" y="10"></point>
      <point x="545" y="31" type="curve" smooth="yes"></point>
      <point x="13" y="1209" type="line" smooth="yes"></point>
      <point x="11" y="1213.46"></point>
      <point x="11" y="1217.62"></point>
      <point x="11" y="1221.34" type="curve" smooth="yes"></point>
      <point x="11" y="1232.65"></point>
      <point x="19" y="1240"></point>
      <point x="33" y="1240" type="curve" smooth="yes"></point>
      <point x="85" y="1240" type="line" smooth="yes"></point>
      <point x="108" y="1240"></point>
      <point x="124" y="1230"></point>
      <point x="133" y="1209" type="curve" smooth="yes"></point>
      <point x="663" y="31" type="line" smooth="yes"></point>
      <point x="665" y="26.5371"></point>
      <point x="666" y="22.3818"></point>
      <point x="666" y="18.6553" type="curve" smooth="yes"></point>
      <point x="666" y="7.35254"></point>
      <point x="658" y="0"></point>
      <point x="643" y="0" type="curve" smooth="yes"></point>
    </contour>
  </outline>
</glyph>
<glyph name="bracketright" format="1">
  <advance width="844"></advance>
  <unicode hex="005D"></unicode>
  <outline>
    <contour>
      <point x="239" y="-142" type="line" smooth="yes"></point>
      <point x="217" y="-142"></point>
      <point x="205" y="-130"></point>
      <point x="205" y="-108" type="curve" smooth="yes"></point>
      <point x="205" y="-70" type="line" smooth="yes"></point>
      <point x="205" y="-48"></point>
      <point x="217" y="-36"></point>
      <point x="239" y="-36" type="curve" smooth="yes"></point>
      <point x="577" y="-36" type="line"></point>
      <point x="577" y="1134" type="line"></point>
      <point x="239" y="1134" type="line" smooth="yes"></point>
      <point x="217" y="1134"></point>
      <point x="205" y="1146"></point>
      <point x="205" y="1168" type="curve" smooth="yes"></point>
      <point x="205" y="1206" type="line" smooth="yes"></point>
      <point x="205" y="1228"></point>
      <point x="217" y="1240"></point>
      <point x="239" y="1240" type="curve" smooth="yes"></point>
      <point x="671" y="1240" type="line" smooth="yes"></point>
      <point x="693" y="1240"></point>
      <point x="705" y="1228"></point>
      <point x="705" y="1206" type="curve" smooth="yes"></point>
      <point x="705" y="-108" type="line" smooth="yes"></point>
      <point x="705" y="-130"></point>
      <point x="693" y="-142"></point>
      <point x="671" y="-142" type="curve" smooth="yes"></point>
    </contour>
  </outline>
</glyph>
<glyph name="asciicircum" format="1">
  <advance width="844"></advance>
  <unicode hex="005E"></unicode>
  <outline>
    <contour>
      <point x="126" y="587" type="line" smooth="yes"></point>
      <point x="111" y="587"></point>
      <point x="103" y="594.353"></point>
      <point x="103" y="605.655" type="curve" smooth="yes"></point>
      <point x="103" y="609.382"></point>
      <point x="104" y="613.537"></point>
      <point x="106" y="618" type="curve" smooth="yes"></point>
      <point x="371" y="1210" type="line" smooth="yes"></point>
      <point x="381" y="1231"></point>
      <point x="389" y="1240"></point>
      <point x="431" y="1240" type="curve" smooth="yes"></point>
      <point x="478" y="1240"></point>
      <point x="480" y="1232"></point>
      <point x="490" y="1210" type="curve" smooth="yes"></point>
      <point x="756" y="618" type="line" smooth="yes"></point>
      <point x="757" y="613.537"></point>
      <point x="758" y="609.382"></point>
      <point x="758" y="605.655" type="curve" smooth="yes"></point>
      <point x="758" y="594.353"></point>
      <point x="750" y="587"></point>
      <point x="736" y="587" type="curve" smooth="yes"></point>
      <point x="686" y="587" type="line" smooth="yes"></point>
      <point x="663" y="587"></point>
      <point x="647" y="597"></point>
      <point x="638" y="618" type="curve" smooth="yes"></point>
      <point x="431" y="1095" type="line"></point>
      <point x="224" y="618" type="line" smooth="yes"></point>
      <point x="215" y="597"></point>
      <point x="199" y="587"></point>
      <point x="176" y="587" type="curve" smooth="yes"></point>
    </contour>
  </outline>
</glyph>
<glyph name="underscore" format="1">
  <advance width="918"></advance>
  <unicode hex="005F"></unicode>
  <outline>
    <contour>
      <point x="254" y="-93" type="line" smooth="yes"></point>
      <point x="232" y="-93"></point>
      <point x="220" y="-80.7363"></point>
      <point x="220" y="-59" type="curve" smooth="yes"></point>
      <point x="220" y="-34" type="line" smooth="yes"></point>
      <point x="220" y="-12.2637"></point>
      <point x="232" y="0"></point>
      <point x="254" y="0" type="curve" smooth="yes"></point>
      <point x="859" y="0" type="line" smooth="yes"></point>
      <point x="880" y="-0"></point>
      <point x="893" y="-12.2637"></point>
      <point x="893" y="-34" type="curve" smooth="yes"></point>
      <point x="893" y="-59" type="line" smooth="yes"></point>
      <point x="893" y="-80.7363"></point>
      <point x="880" y="-93"></point>
      <point x="859" y="-93" type="curve" smooth="yes"></point>
    </contour>
  </outline>
</glyph>
<glyph name="grave" format="1">
  <advance width="595"></advance>
  <unicode hex="0060"></unicode>
  <outline>
    <contour>
      <point x="435" y="86" type="curve" smooth="yes"></point>
      <point x="428" y="86"></point>
      <point x="421" y="90"></point>
      <point x="414" y="98" type="curve" smooth="yes"></point>
      <point x="174" y="381" type="line" smooth="yes"></point>
      <point x="162" y="395"></point>
      <point x="157" y="409"></point>
      <point x="157" y="422" type="curve" smooth="yes"></point>
      <point x="157" y="454"></point>
      <point x="189" y="481"></point>
      <point x="222" y="481" type="curve" smooth="yes"></point>
      <point x="244" y="481"></point>
      <point x="267" y="469"></point>
      <point x="282" y="441" type="curve" smooth="yes"></point>
      <point x="449" y="121" type="line" smooth="yes"></point>
      <point x="452" y="115"></point>
      <point x="453" y="110"></point>
      <point x="453" y="106" type="curve" smooth="yes"></point>
      <point x="453" y="94"></point>
      <point x="445" y="86"></point>
    </contour>
  </outline>
</glyph>
<glyph name="a" format="1">
  <advance width="844"></advance>
  <unicode hex="0061"></unicode>
  <outline>
    <contour>
      <point x="334" y="-16.0332" type="curve" smooth="yes"></point>
      <point x="196" y="-16.0332"></point>
      <point x="98" y="66.9971"></point>
      <point x="98" y="193.001" type="curve" smooth="yes"></point>
      <point x="98" y="266.001"></point>
      <point x="109" y="400.001"></point>
      <point x="403" y="461.001" type="curve"></point>
      <point x="561" y="496.001" type="line"></point>
      <point x="561" y="545.001" type="line" smooth="yes"></point>
      <point x="561" y="723.001"></point>
      <point x="469" y="742.001"></point>
      <point x="380" y="742.001" type="curve" smooth="yes"></point>
      <point x="309" y="742.001"></point>
      <point x="227" y="712.001"></point>
      <point x="169" y="685.001" type="curve" smooth="yes"></point>
      <point x="149" y="676.001"></point>
      <point x="133" y="682.001"></point>
      <point x="125" y="702.001" type="curve" smooth="yes"></point>
      <point x="114" y="730.001" type="line" smooth="yes"></point>
      <point x="106" y="749.001"></point>
      <point x="113" y="767.001"></point>
      <point x="132" y="776.001" type="curve" smooth="yes"></point>
      <point x="193" y="805.001"></point>
      <point x="300" y="840.001"></point>
      <point x="414" y="840.001" type="curve" smooth="yes"></point>
      <point x="557" y="840.001"></point>
      <point x="688" y="760.001"></point>
      <point x="688" y="572.001" type="curve" smooth="yes"></point>
      <point x="688" y="209.001" type="line" smooth="yes"></point>
      <point x="688" y="137.026"></point>
      <point x="736" y="91.7598"></point>
      <point x="779" y="91.7598" type="curve" smooth="yes"></point>
      <point x="788" y="91.7598"></point>
      <point x="799" y="93.7051"></point>
      <point x="799" y="83.6836" type="curve" smooth="yes"></point>
      <point x="799" y="82.0664"></point>
      <point x="798" y="80.1816"></point>
      <point x="797" y="78" type="curve" smooth="yes"></point>
      <point x="778" y="18" type="line" smooth="yes"></point>
      <point x="771" y="-5"></point>
      <point x="764" y="-8"></point>
      <point x="743" y="-6" type="curve" smooth="yes"></point>
      <point x="617" y="5"></point>
      <point x="580" y="107"></point>
      <point x="580" y="108" type="curve"></point>
      <point x="487" y="6.29395"></point>
      <point x="400" y="-16.0332"></point>
    </contour>
    <contour>
      <point x="355" y="77" type="curve" smooth="yes"></point>
      <point x="440" y="77"></point>
      <point x="513" y="125"></point>
      <point x="561" y="177" type="curve"></point>
      <point x="561" y="425" type="line"></point>
      <point x="390" y="379" type="line"></point>
      <point x="242" y="341"></point>
      <point x="223" y="268"></point>
      <point x="223" y="206" type="curve" smooth="yes"></point>
      <point x="223" y="135"></point>
      <point x="271" y="77"></point>
    </contour>
  </outline>
</glyph>
<glyph name="b" format="1">
  <advance width="984"></advance>
  <unicode hex="0062"></unicode>
  <outline>
    <contour>
      <point x="255" y="676.112" type="curve"></point>
      <point x="255" y="98.0557" type="line"></point>
      <point x="295" y="89.8262"></point>
      <point x="351" y="80.999"></point>
      <point x="422" y="80.999" type="curve" smooth="yes"></point>
      <point x="614" y="80.999"></point>
      <point x="757" y="195.999"></point>
      <point x="757" y="406.999" type="curve" smooth="yes"></point>
      <point x="757" y="573.999"></point>
      <point x="688" y="741.999"></point>
      <point x="484" y="741.999" type="curve" smooth="yes"></point>
      <point x="397" y="741.999"></point>
      <point x="314" y="708.45"></point>
    </contour>
    <contour>
      <point x="421" y="-16" type="curve" smooth="yes"></point>
      <point x="365" y="-16"></point>
      <point x="303" y="-9.90039"></point>
      <point x="237" y="2.9668" type="curve"></point>
      <point x="232" y="1.00977"></point>
      <point x="227" y="-0.00195312"></point>
      <point x="221" y="-0.00195312" type="curve" smooth="yes"></point>
      <point x="161" y="-0.00195312" type="line" smooth="yes"></point>
      <point x="139" y="-0.00195312"></point>
      <point x="127" y="12.2617"></point>
      <point x="127" y="33.998" type="curve" smooth="yes"></point>
      <point x="127" y="1185" type="line" smooth="yes"></point>
      <point x="127" y="1207.36"></point>
      <point x="138" y="1220.97"></point>
      <point x="160" y="1224.76" type="curve" smooth="yes"></point>
      <point x="221" y="1235.24" type="line" smooth="yes"></point>
      <point x="224" y="1235.69"></point>
      <point x="226" y="1235.91"></point>
      <point x="228" y="1235.91" type="curve" smooth="yes"></point>
      <point x="245" y="1235.91"></point>
      <point x="255" y="1225.35"></point>
      <point x="255" y="1207" type="curve" smooth="yes"></point>
      <point x="255" y="762.16" type="line"></point>
      <point x="316" y="800.396"></point>
      <point x="406" y="840"></point>
      <point x="514" y="840" type="curve" smooth="yes"></point>
      <point x="749" y="840"></point>
      <point x="884" y="650"></point>
      <point x="884" y="411" type="curve" smooth="yes"></point>
      <point x="884" y="154"></point>
      <point x="707" y="-16"></point>
    </contour>
  </outline>
</glyph>
<glyph name="c" format="1">
  <advance width="844"></advance>
  <unicode hex="0063"></unicode>
  <outline>
    <contour>
      <point x="224" y="414" type="curve" smooth="yes"></point>
      <point x="224" y="233.566"></point>
      <point x="324" y="80.9775"></point>
      <point x="557" y="80.9775" type="curve" smooth="yes"></point>
      <point x="654" y="80.9775"></point>
      <point x="722" y="110.58"></point>
      <point x="764" y="130.53" type="curve" smooth="yes"></point>
      <point x="782" y="138.818"></point>
      <point x="795" y="130.73"></point>
      <point x="795" y="111.423" type="curve" smooth="yes"></point>
      <point x="795" y="74.8682" type="line" smooth="yes"></point>
      <point x="795" y="53.5312"></point>
      <point x="784" y="36.5137"></point>
      <point x="764" y="27.5957" type="curve" smooth="yes"></point>
      <point x="718" y="6.46289"></point>
      <point x="646" y="-16.0146"></point>
      <point x="555" y="-16.0146" type="curve" smooth="yes"></point>
      <point x="270" y="-16.0146"></point>
      <point x="98" y="164.37"></point>
      <point x="98" y="413.002" type="curve" smooth="yes"></point>
      <point x="98" y="665.848"></point>
      <point x="282" y="840.039"></point>
      <point x="549" y="840.039" type="curve" smooth="yes"></point>
      <point x="644" y="840.039"></point>
      <point x="723" y="816.29"></point>
      <point x="764" y="798.333" type="curve" smooth="yes"></point>
      <point x="783" y="790.302"></point>
      <point x="795" y="772.137"></point>
      <point x="795" y="752.049" type="curve" smooth="yes"></point>
      <point x="795" y="723.081" type="line" smooth="yes"></point>
      <point x="795" y="703.324"></point>
      <point x="782" y="695.205"></point>
      <point x="764" y="703.046" type="curve" smooth="yes"></point>
      <point x="727" y="719.184"></point>
      <point x="657" y="742"></point>
      <point x="559" y="742" type="curve" smooth="yes"></point>
      <point x="333" y="742"></point>
      <point x="224" y="583"></point>
    </contour>
  </outline>
</glyph>
<glyph name="d" format="1">
  <advance width="1037"></advance>
  <unicode hex="0064"></unicode>
  <outline>
    <contour>
      <point x="756" y="680.283" type="line"></point>
      <point x="703" y="712.064"></point>
      <point x="628" y="741.998"></point>
      <point x="532" y="741.998" type="curve" smooth="yes"></point>
      <point x="319" y="741.998"></point>
      <point x="236" y="576.998"></point>
      <point x="236" y="405.998" type="curve" smooth="yes"></point>
      <point x="236" y="194.998"></point>
      <point x="382" y="80.998"></point>
      <point x="574" y="80.998" type="curve" smooth="yes"></point>
      <point x="629" y="80.998"></point>
      <point x="700" y="90.4004"></point>
      <point x="756" y="100.06" type="curve"></point>
    </contour>
    <contour>
      <point x="791" y="0" type="line" smooth="yes"></point>
      <point x="782" y="0"></point>
      <point x="774" y="2.08105"></point>
      <point x="769" y="6.05078" type="curve"></point>
      <point x="699" y="-8.45312"></point>
      <point x="633" y="-16.001"></point>
      <point x="575" y="-16.001" type="curve" smooth="yes"></point>
      <point x="289" y="-16.001"></point>
      <point x="109" y="153.999"></point>
      <point x="109" y="410.999" type="curve" smooth="yes"></point>
      <point x="109" y="649.999"></point>
      <point x="261" y="839.999"></point>
      <point x="514" y="839.999" type="curve" smooth="yes"></point>
      <point x="622" y="839.999"></point>
      <point x="702" y="809.933"></point>
      <point x="756" y="777.767" type="curve"></point>
      <point x="756" y="1185" type="line" smooth="yes"></point>
      <point x="756" y="1207.37"></point>
      <point x="768" y="1220.97"></point>
      <point x="790" y="1224.76" type="curve" smooth="yes"></point>
      <point x="851" y="1235.24" type="line" smooth="yes"></point>
      <point x="854" y="1235.69"></point>
      <point x="856" y="1235.91"></point>
      <point x="858" y="1235.91" type="curve" smooth="yes"></point>
      <point x="875" y="1235.91"></point>
      <point x="885" y="1225.35"></point>
      <point x="885" y="1207" type="curve" smooth="yes"></point>
      <point x="885" y="34" type="line" smooth="yes"></point>
      <point x="885" y="12.2637"></point>
      <point x="872" y="0"></point>
      <point x="851" y="0" type="curve" smooth="yes"></point>
    </contour>
  </outline>
</glyph>
<glyph name="e" format="1">
  <advance width="914"></advance>
  <unicode hex="0065"></unicode>
  <outline>
    <contour>
      <point x="540" y="-15" type="curve" smooth="yes"></point>
      <point x="285" y="-15"></point>
      <point x="89" y="132.002"></point>
      <point x="89" y="428.002" type="curve" smooth="yes"></point>
      <point x="89" y="669.002"></point>
      <point x="269" y="840.002"></point>
      <point x="485" y="840.002" type="curve" smooth="yes"></point>
      <point x="741" y="840.002"></point>
      <point x="843" y="637.002"></point>
      <point x="843" y="413.002" type="curve" smooth="yes"></point>
      <point x="843" y="402.002" type="line" smooth="yes"></point>
      <point x="843" y="396.002"></point>
      <point x="839" y="392.002"></point>
      <point x="834" y="392.002" type="curve" smooth="yes"></point>
      <point x="211" y="392.002" type="line"></point>
      <point x="226" y="174.002"></point>
      <point x="365" y="81.002"></point>
      <point x="537" y="81.002" type="curve" smooth="yes"></point>
      <point x="656" y="81.002"></point>
      <point x="726" y="112.964"></point>
      <point x="782" y="142.768" type="curve" smooth="yes"></point>
      <point x="798" y="151.646"></point>
      <point x="812" y="143.706"></point>
      <point x="812" y="124.927" type="curve" smooth="yes"></point>
      <point x="812" y="89.5654" type="line" smooth="yes"></point>
      <point x="812" y="67.5723"></point>
      <point x="801" y="50.7012"></point>
      <point x="782" y="40.5479" type="curve" smooth="yes"></point>
      <point x="721" y="9.15039"></point>
      <point x="650" y="-15"></point>
    </contour>
    <contour>
      <point x="216" y="470" type="curve"></point>
      <point x="735" y="470" type="line"></point>
      <point x="726" y="610"></point>
      <point x="648" y="742"></point>
      <point x="494" y="742" type="curve" smooth="yes"></point>
      <point x="276" y="742"></point>
      <point x="221" y="543"></point>
    </contour>
  </outline>
</glyph>
<glyph name="f" format="1">
  <advance width="561"></advance>
  <unicode hex="0066"></unicode>
  <outline>
    <contour>
      <point x="475" y="723" type="curve" smooth="yes"></point>
      <point x="322" y="723" type="line"></point>
      <point x="322" y="34" type="line" smooth="yes"></point>
      <point x="322" y="12.2637"></point>
      <point x="309" y="0"></point>
      <point x="288" y="0" type="curve" smooth="yes"></point>
      <point x="228" y="0" type="line" smooth="yes"></point>
      <point x="206" y="0"></point>
      <point x="194" y="12.2637"></point>
      <point x="194" y="34" type="curve" smooth="yes"></point>
      <point x="194" y="723" type="line"></point>
      <point x="113" y="723" type="line" smooth="yes"></point>
      <point x="91" y="723"></point>
      <point x="79" y="735"></point>
      <point x="79" y="757" type="curve" smooth="yes"></point>
      <point x="79" y="790" type="line" smooth="yes"></point>
      <point x="79" y="812"></point>
      <point x="89" y="824"></point>
      <point x="113" y="824" type="curve" smooth="yes"></point>
      <point x="194" y="824" type="line"></point>
      <point x="194" y="881" type="line" smooth="yes"></point>
      <point x="194" y="1071"></point>
      <point x="247" y="1204"></point>
      <point x="446" y="1204" type="curve" smooth="yes"></point>
      <point x="483" y="1204"></point>
      <point x="526" y="1200"></point>
      <point x="574" y="1190" type="curve" smooth="yes"></point>
      <point x="595" y="1186"></point>
      <point x="599" y="1175"></point>
      <point x="599" y="1151" type="curve" smooth="yes"></point>
      <point x="599" y="1119" type="line" smooth="yes"></point>
      <point x="599" y="1099"></point>
      <point x="587" y="1091"></point>
      <point x="567" y="1094" type="curve" smooth="yes"></point>
      <point x="528" y="1101"></point>
      <point x="494" y="1105"></point>
      <point x="465" y="1105" type="curve" smooth="yes"></point>
      <point x="363" y="1105"></point>
      <point x="322" y="1054"></point>
      <point x="322" y="883" type="curve" smooth="yes"></point>
      <point x="322" y="824" type="line"></point>
      <point x="475" y="824" type="line" smooth="yes"></point>
      <point x="496" y="824"></point>
      <point x="509" y="812"></point>
      <point x="509" y="790" type="curve" smooth="yes"></point>
      <point x="509" y="757" type="line" smooth="yes"></point>
      <point x="509" y="735"></point>
      <point x="496" y="723"></point>
    </contour>
  </outline>
</glyph>
<glyph name="g" format="1">
  <advance width="901"></advance>
  <unicode hex="0067"></unicode>
  <outline>
    <contour>
      <point x="443" y="-353" type="curve" smooth="yes"></point>
      <point x="634" y="-353"></point>
      <point x="731" y="-273"></point>
      <point x="731" y="-158" type="curve" smooth="yes"></point>
      <point x="731" y="-63"></point>
      <point x="684" y="-18"></point>
      <point x="516" y="-18" type="curve" smooth="yes"></point>
      <point x="341" y="-18" type="line"></point>
      <point x="242" y="-42"></point>
      <point x="178" y="-117"></point>
      <point x="178" y="-183" type="curve" smooth="yes"></point>
      <point x="178" y="-284"></point>
      <point x="256" y="-353"></point>
    </contour>
    <contour>
      <point x="416" y="332" type="curve" smooth="yes"></point>
      <point x="539" y="332"></point>
      <point x="624" y="406"></point>
      <point x="624" y="537" type="curve" smooth="yes"></point>
      <point x="624" y="667"></point>
      <point x="542" y="744"></point>
      <point x="414" y="744" type="curve" smooth="yes"></point>
      <point x="287" y="744"></point>
      <point x="209" y="662"></point>
      <point x="209" y="535" type="curve" smooth="yes"></point>
      <point x="209" y="411"></point>
      <point x="279" y="332"></point>
    </contour>
    <contour>
      <point x="410" y="240" type="curve" smooth="yes"></point>
      <point x="376" y="240"></point>
      <point x="344" y="243.871"></point>
      <point x="314" y="251.591" type="curve"></point>
      <point x="299" y="204.411"></point>
      <point x="288" y="167.192"></point>
      <point x="288" y="140.999" type="curve" smooth="yes"></point>
      <point x="288" y="93.999"></point>
      <point x="324" y="75.999"></point>
      <point x="435" y="75.999" type="curve" smooth="yes"></point>
      <point x="522" y="75.999" type="line" smooth="yes"></point>
      <point x="745" y="75.999"></point>
      <point x="840" y="5.99902"></point>
      <point x="840" y="-143.001" type="curve" smooth="yes"></point>
      <point x="840" y="-321.001"></point>
      <point x="706" y="-446.001"></point>
      <point x="435" y="-446.001" type="curve" smooth="yes"></point>
      <point x="212" y="-446.001"></point>
      <point x="65" y="-348.001"></point>
      <point x="65" y="-204.001" type="curve" smooth="yes"></point>
      <point x="65" y="-109.001"></point>
      <point x="143" y="-18.001"></point>
      <point x="242" y="6.99902" type="curve"></point>
      <point x="193" y="23.999"></point>
      <point x="173" y="61.999"></point>
      <point x="173" y="106.999" type="curve" smooth="yes"></point>
      <point x="173" y="159.603"></point>
      <point x="199" y="225.142"></point>
      <point x="238" y="281.067" type="curve"></point>
      <point x="153" y="327.463"></point>
      <point x="95" y="413.023"></point>
      <point x="95" y="537" type="curve" smooth="yes"></point>
      <point x="95" y="715"></point>
      <point x="225" y="839.999"></point>
      <point x="416" y="839.999" type="curve" smooth="yes"></point>
      <point x="499" y="839.999"></point>
      <point x="567" y="819.272"></point>
      <point x="619" y="781.744" type="curve"></point>
      <point x="842" y="838" type="line" smooth="yes"></point>
      <point x="864" y="844"></point>
      <point x="878" y="832"></point>
      <point x="882" y="809" type="curve" smooth="yes"></point>
      <point x="887" y="779" type="line" smooth="yes"></point>
      <point x="887" y="776.555"></point>
      <point x="887" y="774.178"></point>
      <point x="887" y="771.881" type="curve" smooth="yes"></point>
      <point x="887" y="754.45"></point>
      <point x="877" y="741.65"></point>
      <point x="859" y="739" type="curve" smooth="yes"></point>
      <point x="683" y="714.402" type="line"></point>
      <point x="715" y="666.42"></point>
      <point x="732" y="606.323"></point>
      <point x="732" y="537" type="curve" smooth="yes"></point>
      <point x="732" y="356"></point>
      <point x="591" y="240"></point>
    </contour>
  </outline>
</glyph>
<glyph name="h" format="1">
  <advance width="1054"></advance>
  <unicode hex="0068"></unicode>
  <outline>
    <contour>
      <point x="583" y="742.302" type="curve" smooth="yes"></point>
      <point x="440" y="742.302"></point>
      <point x="338" y="666.57"></point>
      <point x="275" y="602.418" type="curve"></point>
      <point x="275" y="33.999" type="line" smooth="yes"></point>
      <point x="275" y="12.2627"></point>
      <point x="263" y="-0.000976562"></point>
      <point x="241" y="-0.000976562" type="curve" smooth="yes"></point>
      <point x="181" y="-0.000976562" type="line" smooth="yes"></point>
      <point x="160" y="-0.000976562"></point>
      <point x="147" y="12.2627"></point>
      <point x="147" y="33.999" type="curve" smooth="yes"></point>
      <point x="147" y="1185" type="line" smooth="yes"></point>
      <point x="147" y="1207.37"></point>
      <point x="159" y="1220.97"></point>
      <point x="181" y="1224.76" type="curve" smooth="yes"></point>
      <point x="242" y="1235.24" type="line" smooth="yes"></point>
      <point x="245" y="1235.69"></point>
      <point x="247" y="1235.91"></point>
      <point x="249" y="1235.91" type="curve" smooth="yes"></point>
      <point x="266" y="1235.91"></point>
      <point x="275" y="1225.35"></point>
      <point x="275" y="1207" type="curve" smooth="yes"></point>
      <point x="275" y="712.154" type="line"></point>
      <point x="333" y="771.884"></point>
      <point x="435" y="840"></point>
      <point x="603" y="840" type="curve" smooth="yes"></point>
      <point x="784" y="840"></point>
      <point x="899" y="741"></point>
      <point x="899" y="560" type="curve" smooth="yes"></point>
      <point x="899" y="33.999" type="line" smooth="yes"></point>
      <point x="899" y="11.999"></point>
      <point x="887" y="-0.000976562"></point>
      <point x="865" y="-0.000976562" type="curve" smooth="yes"></point>
      <point x="805" y="-0.000976562" type="line" smooth="yes"></point>
      <point x="783" y="-0.000976562"></point>
      <point x="771" y="11.999"></point>
      <point x="771" y="33.999" type="curve" smooth="yes"></point>
      <point x="771" y="559" type="line" smooth="yes"></point>
      <point x="771" y="684.738"></point>
      <point x="716" y="742.302"></point>
    </contour>
  </outline>
</glyph>
<glyph name="i" format="1">
  <advance width="544"></advance>
  <unicode hex="0069"></unicode>
  <outline>
    <contour>
      <point x="237" y="0" type="line" smooth="yes"></point>
      <point x="215" y="0"></point>
      <point x="203" y="12.2637"></point>
      <point x="203" y="34" type="curve" smooth="yes"></point>
      <point x="203" y="790" type="line" smooth="yes"></point>
      <point x="203" y="811.736"></point>
      <point x="215" y="824"></point>
      <point x="237" y="824" type="curve" smooth="yes"></point>
      <point x="297" y="824" type="line" smooth="yes"></point>
      <point x="319" y="824"></point>
      <point x="331" y="812"></point>
      <point x="331" y="790" type="curve" smooth="yes"></point>
      <point x="331" y="34" type="line" smooth="yes"></point>
      <point x="331" y="12.2637"></point>
      <point x="318" y="0"></point>
      <point x="297" y="0" type="curve" smooth="yes"></point>
    </contour>
    <contour>
      <point x="266" y="1064" type="curve" smooth="yes"></point>
      <point x="207" y="1064"></point>
      <point x="176" y="1108"></point>
      <point x="176" y="1152" type="curve" smooth="yes"></point>
      <point x="176" y="1195"></point>
      <point x="207" y="1240"></point>
      <point x="266" y="1240" type="curve" smooth="yes"></point>
      <point x="323" y="1240"></point>
      <point x="354" y="1194"></point>
      <point x="354" y="1152" type="curve" smooth="yes"></point>
      <point x="354" y="1108"></point>
      <point x="323" y="1064"></point>
    </contour>
  </outline>
</glyph>
<glyph name="j" format="1">
  <advance width="544"></advance>
  <unicode hex="006A"></unicode>
  <outline>
    <contour>
      <point x="119" y="-323" type="curve" smooth="yes"></point>
      <point x="116" y="-323.518"></point>
      <point x="112" y="-323.797"></point>
      <point x="109" y="-323.797" type="curve" smooth="yes"></point>
      <point x="93" y="-323.797"></point>
      <point x="83" y="-317.375"></point>
      <point x="78" y="-300" type="curve" smooth="yes"></point>
      <point x="65" y="-242" type="line" smooth="yes"></point>
      <point x="62" y="-229"></point>
      <point x="91" y="-221"></point>
      <point x="91" y="-221" type="curve"></point>
      <point x="187" y="-214"></point>
      <point x="239" y="-178"></point>
      <point x="239" y="-76" type="curve" smooth="yes"></point>
      <point x="239" y="790" type="line" smooth="yes"></point>
      <point x="239" y="811.736"></point>
      <point x="252" y="824"></point>
      <point x="273" y="824" type="curve" smooth="yes"></point>
      <point x="333" y="824" type="line" smooth="yes"></point>
      <point x="355" y="824"></point>
      <point x="367" y="812"></point>
      <point x="367" y="790" type="curve" smooth="yes"></point>
      <point x="367" y="-79" type="line" smooth="yes"></point>
      <point x="367" y="-177"></point>
      <point x="354" y="-301"></point>
    </contour>
    <contour>
      <point x="294" y="1064" type="curve" smooth="yes"></point>
      <point x="235" y="1064"></point>
      <point x="204" y="1108"></point>
      <point x="204" y="1152" type="curve" smooth="yes"></point>
      <point x="204" y="1195"></point>
      <point x="235" y="1240"></point>
      <point x="294" y="1240" type="curve" smooth="yes"></point>
      <point x="351" y="1240"></point>
      <point x="382" y="1194"></point>
      <point x="382" y="1152" type="curve" smooth="yes"></point>
      <point x="382" y="1108"></point>
      <point x="351" y="1064"></point>
    </contour>
  </outline>
</glyph>
<glyph name="k" format="1">
  <advance width="844"></advance>
  <unicode hex="006B"></unicode>
  <outline>
    <contour>
      <point x="167" y="0" type="line" smooth="yes"></point>
      <point x="145" y="0"></point>
      <point x="132" y="12.2627"></point>
      <point x="132" y="33.999" type="curve" smooth="yes"></point>
      <point x="132" y="1185" type="line" smooth="yes"></point>
      <point x="132" y="1207.37"></point>
      <point x="144" y="1220.97"></point>
      <point x="166" y="1224.76" type="curve" smooth="yes"></point>
      <point x="227" y="1235.24" type="line" smooth="yes"></point>
      <point x="230" y="1235.69"></point>
      <point x="232" y="1235.91"></point>
      <point x="234" y="1235.91" type="curve" smooth="yes"></point>
      <point x="251" y="1235.91"></point>
      <point x="260" y="1225.35"></point>
      <point x="260" y="1207" type="curve" smooth="yes"></point>
      <point x="260" y="461.739" type="line"></point>
      <point x="615" y="801" type="line" smooth="yes"></point>
      <point x="632" y="816"></point>
      <point x="651" y="824"></point>
      <point x="674" y="824" type="curve" smooth="yes"></point>
      <point x="764" y="824" type="line" smooth="yes"></point>
      <point x="780" y="824"></point>
      <point x="785" y="812"></point>
      <point x="773" y="801" type="curve" smooth="yes"></point>
      <point x="389" y="441" type="line"></point>
      <point x="834" y="23.291" type="line" smooth="yes"></point>
      <point x="838" y="19.0762"></point>
      <point x="840" y="14.7197"></point>
      <point x="840" y="10.9316" type="curve" smooth="yes"></point>
      <point x="840" y="4.69727"></point>
      <point x="835" y="0"></point>
      <point x="825" y="0" type="curve" smooth="yes"></point>
      <point x="730" y="0" type="line" smooth="yes"></point>
      <point x="707" y="0"></point>
      <point x="688" y="8"></point>
      <point x="671" y="23.2598" type="curve" smooth="yes"></point>
      <point x="268" y="405" type="line"></point>
      <point x="260" y="399.4" type="line"></point>
      <point x="260" y="33.999" type="line" smooth="yes"></point>
      <point x="260" y="12.2627"></point>
      <point x="248" y="0"></point>
      <point x="227" y="0" type="curve" smooth="yes"></point>
    </contour>
  </outline>
</glyph>
<glyph name="l" format="1">
  <advance width="492"></advance>
  <unicode hex="006C"></unicode>
  <outline>
    <contour>
      <point x="215" y="0" type="line" smooth="yes"></point>
      <point x="193" y="0"></point>
      <point x="181" y="12.2637"></point>
      <point x="181" y="34" type="curve" smooth="yes"></point>
      <point x="181" y="1185" type="line" smooth="yes"></point>
      <point x="181" y="1207.37"></point>
      <point x="188" y="1221"></point>
      <point x="213" y="1225" type="curve" smooth="yes"></point>
      <point x="275" y="1235.24" type="line" smooth="yes"></point>
      <point x="278" y="1235.73"></point>
      <point x="280" y="1235.97"></point>
      <point x="283" y="1235.97" type="curve" smooth="yes"></point>
      <point x="299" y="1235.97"></point>
      <point x="309" y="1225.27"></point>
      <point x="309" y="1207" type="curve" smooth="yes"></point>
      <point x="309" y="34" type="line" smooth="yes"></point>
      <point x="309" y="12.2637"></point>
      <point x="296" y="0"></point>
      <point x="275" y="0" type="curve" smooth="yes"></point>
    </contour>
  </outline>
</glyph>
<glyph name="m" format="1">
  <advance width="1547"></advance>
  <unicode hex="006D"></unicode>
  <outline>
    <contour>
      <point x="532" y="742.301" type="curve" smooth="yes"></point>
      <point x="400" y="742.301"></point>
      <point x="305" y="671.622"></point>
      <point x="245" y="608.767" type="curve"></point>
      <point x="245" y="33.999" type="line" smooth="yes"></point>
      <point x="245" y="12.2627"></point>
      <point x="233" y="-0.000976562"></point>
      <point x="212" y="-0.000976562" type="curve" smooth="yes"></point>
      <point x="155" y="-0.000976562" type="line" smooth="yes"></point>
      <point x="134" y="-0.000976562"></point>
      <point x="123" y="12.2627"></point>
      <point x="123" y="33.999" type="curve" smooth="yes"></point>
      <point x="123" y="789.999" type="line" smooth="yes"></point>
      <point x="123" y="811.735"></point>
      <point x="134" y="823.999"></point>
      <point x="155" y="823.999" type="curve" smooth="yes"></point>
      <point x="212" y="823.999" type="line" smooth="yes"></point>
      <point x="233" y="823.999"></point>
      <point x="245" y="811.999"></point>
      <point x="245" y="789.999" type="curve" smooth="yes"></point>
      <point x="245" y="718.522" type="line"></point>
      <point x="301" y="776.619"></point>
      <point x="397" y="839.999"></point>
      <point x="551" y="839.999" type="curve" smooth="yes"></point>
      <point x="686" y="839.999"></point>
      <point x="783" y="779.146"></point>
      <point x="819" y="665.633" type="curve"></point>
      <point x="860" y="728.398"></point>
      <point x="963" y="839.999"></point>
      <point x="1167" y="839.999" type="curve" smooth="yes"></point>
      <point x="1340" y="839.999"></point>
      <point x="1450" y="740.999"></point>
      <point x="1450" y="559.999" type="curve" smooth="yes"></point>
      <point x="1450" y="33.999" type="line" smooth="yes"></point>
      <point x="1450" y="11.999"></point>
      <point x="1439" y="-0.000976562"></point>
      <point x="1418" y="-0.000976562" type="curve" smooth="yes"></point>
      <point x="1360" y="-0.000976562" type="line" smooth="yes"></point>
      <point x="1339" y="-0.000976562"></point>
      <point x="1328" y="11.999"></point>
      <point x="1328" y="33.999" type="curve" smooth="yes"></point>
      <point x="1328" y="558.999" type="line" smooth="yes"></point>
      <point x="1328" y="684.737"></point>
      <point x="1276" y="742.301"></point>
      <point x="1149" y="742.301" type="curve" smooth="yes"></point>
      <point x="994" y="742.301"></point>
      <point x="888" y="643.481"></point>
      <point x="833" y="577.273" type="curve"></point>
      <point x="833" y="571.602"></point>
      <point x="834" y="565.843"></point>
      <point x="834" y="559.999" type="curve" smooth="yes"></point>
      <point x="834" y="33.999" type="line" smooth="yes"></point>
      <point x="834" y="11.999"></point>
      <point x="822" y="-0.000976562"></point>
      <point x="801" y="-0.000976562" type="curve" smooth="yes"></point>
      <point x="744" y="-0.000976562" type="line" smooth="yes"></point>
      <point x="723" y="-0.000976562"></point>
      <point x="711" y="11.999"></point>
      <point x="711" y="33.999" type="curve" smooth="yes"></point>
      <point x="711" y="558.999" type="line" smooth="yes"></point>
      <point x="711" y="684.737"></point>
      <point x="659" y="742.301"></point>
    </contour>
  </outline>
</glyph>
<glyph name="n" format="1">
  <advance width="984"></advance>
  <unicode hex="006E"></unicode>
  <outline>
    <contour>
      <point x="567" y="742.302" type="curve" smooth="yes"></point>
      <point x="424" y="742.302"></point>
      <point x="322" y="666.571"></point>
      <point x="260" y="602.419" type="curve"></point>
      <point x="260" y="34" type="line" smooth="yes"></point>
      <point x="260" y="12.2637"></point>
      <point x="247" y="0"></point>
      <point x="226" y="0" type="curve" smooth="yes"></point>
      <point x="166" y="0" type="line" smooth="yes"></point>
      <point x="144" y="0"></point>
      <point x="132" y="12.2637"></point>
      <point x="132" y="34" type="curve" smooth="yes"></point>
      <point x="132" y="790" type="line" smooth="yes"></point>
      <point x="132" y="811.736"></point>
      <point x="144" y="824"></point>
      <point x="166" y="824" type="curve" smooth="yes"></point>
      <point x="226" y="824" type="line" smooth="yes"></point>
      <point x="248" y="824"></point>
      <point x="260" y="812"></point>
      <point x="260" y="790" type="curve" smooth="yes"></point>
      <point x="260" y="712.154" type="line"></point>
      <point x="317" y="771.884"></point>
      <point x="419" y="840"></point>
      <point x="587" y="840" type="curve" smooth="yes"></point>
      <point x="768" y="840"></point>
      <point x="883" y="741"></point>
      <point x="883" y="560" type="curve" smooth="yes"></point>
      <point x="883" y="34" type="line" smooth="yes"></point>
      <point x="883" y="12"></point>
      <point x="871" y="0"></point>
      <point x="849" y="0" type="curve" smooth="yes"></point>
      <point x="789" y="0" type="line" smooth="yes"></point>
      <point x="767" y="0"></point>
      <point x="755" y="12"></point>
      <point x="755" y="34" type="curve" smooth="yes"></point>
      <point x="755" y="559" type="line" smooth="yes"></point>
      <point x="755" y="684.738"></point>
      <point x="700" y="742.302"></point>
    </contour>
  </outline>
</glyph>
<glyph name="o" format="1">
  <advance width="1055"></advance>
  <unicode hex="006F"></unicode>
  <outline>
    <contour>
      <point x="974" y="408" type="curve" smooth="yes"></point>
      <point x="974" y="139"></point>
      <point x="761" y="-16"></point>
      <point x="528" y="-16" type="curve" smooth="yes"></point>
      <point x="296" y="-16"></point>
      <point x="84" y="138"></point>
      <point x="84" y="408" type="curve" smooth="yes"></point>
      <point x="84" y="682"></point>
      <point x="297" y="840"></point>
      <point x="530" y="840" type="curve" smooth="yes"></point>
      <point x="747" y="840"></point>
      <point x="974" y="683"></point>
    </contour>
    <contour>
      <point x="210" y="410" type="curve" smooth="yes"></point>
      <point x="210" y="230"></point>
      <point x="313" y="81"></point>
      <point x="529" y="81" type="curve" smooth="yes"></point>
      <point x="745" y="81"></point>
      <point x="848" y="244"></point>
      <point x="848" y="409" type="curve" smooth="yes"></point>
      <point x="848" y="575"></point>
      <point x="741" y="742"></point>
      <point x="529" y="742" type="curve" smooth="yes"></point>
      <point x="317" y="742"></point>
      <point x="210" y="576"></point>
    </contour>
  </outline>
</glyph>
<glyph name="p" format="1">
  <advance width="984"></advance>
  <unicode hex="0070"></unicode>
  <outline>
    <contour>
      <point x="255" y="99.9375" type="line"></point>
      <point x="295" y="91.2344"></point>
      <point x="355" y="80.998"></point>
      <point x="431" y="80.998" type="curve" smooth="yes"></point>
      <point x="623" y="80.998"></point>
      <point x="766" y="195.998"></point>
      <point x="766" y="406.998" type="curve" smooth="yes"></point>
      <point x="766" y="573.998"></point>
      <point x="697" y="741.998"></point>
      <point x="493" y="741.998" type="curve" smooth="yes"></point>
      <point x="401" y="741.998"></point>
      <point x="314" y="704.896"></point>
      <point x="255" y="671.117" type="curve"></point>
    </contour>
    <contour>
      <point x="161" y="-435" type="line" smooth="yes"></point>
      <point x="158" y="-435.546"></point>
      <point x="155" y="-435.813"></point>
      <point x="152" y="-435.813" type="curve" smooth="yes"></point>
      <point x="136" y="-435.813"></point>
      <point x="127" y="-425.136"></point>
      <point x="127" y="-407.001" type="curve" smooth="yes"></point>
      <point x="127" y="789.999" type="line" smooth="yes"></point>
      <point x="127" y="811.999"></point>
      <point x="139" y="823.999"></point>
      <point x="161" y="823.999" type="curve" smooth="yes"></point>
      <point x="221" y="823.999" type="line" smooth="yes"></point>
      <point x="243" y="823.999"></point>
      <point x="255" y="811.999"></point>
      <point x="255" y="789.999" type="curve" smooth="yes"></point>
      <point x="255" y="756.438" type="line"></point>
      <point x="316" y="796.334"></point>
      <point x="409" y="840"></point>
      <point x="523" y="840" type="curve" smooth="yes"></point>
      <point x="758" y="840"></point>
      <point x="893" y="650"></point>
      <point x="893" y="411" type="curve" smooth="yes"></point>
      <point x="893" y="154"></point>
      <point x="716" y="-16"></point>
      <point x="430" y="-16" type="curve" smooth="yes"></point>
      <point x="376" y="-16"></point>
      <point x="318" y="-10.4199"></point>
      <point x="255" y="1.32227" type="curve"></point>
      <point x="255" y="-386" type="line" smooth="yes"></point>
      <point x="255" y="-408"></point>
      <point x="243" y="-422"></point>
      <point x="221" y="-426" type="curve" smooth="yes"></point>
    </contour>
  </outline>
</glyph>
<glyph name="q" format="1">
  <advance width="1037"></advance>
  <unicode hex="0071"></unicode>
  <outline>
    <contour>
      <point x="763" y="101.26" type="curve"></point>
      <point x="763" y="676.02" type="line"></point>
      <point x="709" y="709.333"></point>
      <point x="631" y="741.999"></point>
      <point x="530" y="741.999" type="curve" smooth="yes"></point>
      <point x="317" y="741.999"></point>
      <point x="234" y="576.999"></point>
      <point x="234" y="405.999" type="curve" smooth="yes"></point>
      <point x="234" y="194.999"></point>
      <point x="380" y="80.999"></point>
      <point x="572" y="80.999" type="curve" smooth="yes"></point>
      <point x="630" y="80.999"></point>
      <point x="704" y="91.1953"></point>
    </contour>
    <contour>
      <point x="797" y="-435" type="line" smooth="yes"></point>
      <point x="794" y="-435.546"></point>
      <point x="791" y="-435.813"></point>
      <point x="788" y="-435.813" type="curve" smooth="yes"></point>
      <point x="772" y="-435.813"></point>
      <point x="763" y="-425.136"></point>
      <point x="763" y="-407.001" type="curve" smooth="yes"></point>
      <point x="763" y="4.99609" type="line"></point>
      <point x="694" y="-8.81836"></point>
      <point x="631" y="-16"></point>
      <point x="575" y="-16" type="curve" smooth="yes"></point>
      <point x="289" y="-16"></point>
      <point x="109" y="154"></point>
      <point x="109" y="411" type="curve" smooth="yes"></point>
      <point x="109" y="650"></point>
      <point x="261" y="840"></point>
      <point x="514" y="840" type="curve" smooth="yes"></point>
      <point x="626" y="840"></point>
      <point x="708" y="807.247"></point>
      <point x="763" y="773.538" type="curve"></point>
      <point x="763" y="790" type="line" smooth="yes"></point>
      <point x="763" y="812"></point>
      <point x="775" y="824"></point>
      <point x="797" y="824" type="curve" smooth="yes"></point>
      <point x="857" y="824" type="line" smooth="yes"></point>
      <point x="879" y="824"></point>
      <point x="891" y="812"></point>
      <point x="891" y="790" type="curve" smooth="yes"></point>
      <point x="891" y="-386" type="line" smooth="yes"></point>
      <point x="891" y="-408"></point>
      <point x="879" y="-422"></point>
      <point x="857" y="-426" type="curve" smooth="yes"></point>
    </contour>
  </outline>
</glyph>
<glyph name="r" format="1">
  <advance width="765"></advance>
  <unicode hex="0072"></unicode>
  <outline>
    <contour>
      <point x="186" y="0" type="line" smooth="yes"></point>
      <point x="164" y="0"></point>
      <point x="152" y="12.2627"></point>
      <point x="152" y="33.999" type="curve" smooth="yes"></point>
      <point x="152" y="789.999" type="line" smooth="yes"></point>
      <point x="152" y="811.735"></point>
      <point x="164" y="823.999"></point>
      <point x="186" y="823.999" type="curve" smooth="yes"></point>
      <point x="246" y="823.999" type="line" smooth="yes"></point>
      <point x="268" y="823.999"></point>
      <point x="280" y="811.999"></point>
      <point x="280" y="789.999" type="curve" smooth="yes"></point>
      <point x="280" y="579.588" type="line"></point>
      <point x="337" y="696.354"></point>
      <point x="427" y="830.999"></point>
      <point x="546" y="830.999" type="curve" smooth="yes"></point>
      <point x="587" y="830.999"></point>
      <point x="631" y="810.999"></point>
      <point x="679" y="766.999" type="curve" smooth="yes"></point>
      <point x="690" y="757.332"></point>
      <point x="696" y="745.28"></point>
      <point x="696" y="732.162" type="curve" smooth="yes"></point>
      <point x="696" y="726.283"></point>
      <point x="695" y="720.189"></point>
      <point x="693" y="714" type="curve" smooth="yes"></point>
      <point x="680" y="681" type="line" smooth="yes"></point>
      <point x="673" y="661"></point>
      <point x="659" y="656"></point>
      <point x="641" y="668" type="curve" smooth="yes"></point>
      <point x="607" y="690"></point>
      <point x="574" y="707"></point>
      <point x="533" y="707" type="curve" smooth="yes"></point>
      <point x="414" y="707"></point>
      <point x="280" y="535"></point>
      <point x="280" y="408" type="curve" smooth="yes"></point>
      <point x="280" y="33.999" type="line" smooth="yes"></point>
      <point x="280" y="12.2627"></point>
      <point x="267" y="0"></point>
      <point x="246" y="0" type="curve" smooth="yes"></point>
    </contour>
  </outline>
</glyph>
<glyph name="s" format="1">
  <advance width="782"></advance>
  <unicode hex="0073"></unicode>
  <outline>
    <contour>
      <point x="649" y="205.201" type="curve" smooth="yes"></point>
      <point x="649" y="64.7266"></point>
      <point x="559" y="-15.001"></point>
      <point x="383" y="-15.001" type="curve" smooth="yes"></point>
      <point x="288" y="-15.001"></point>
      <point x="223" y="6.99902"></point>
      <point x="178" y="29.999" type="curve" smooth="yes"></point>
      <point x="162" y="37.999"></point>
      <point x="153" y="50.999"></point>
      <point x="153" y="72.999" type="curve" smooth="yes"></point>
      <point x="153" y="115.999" type="line" smooth="yes"></point>
      <point x="153" y="134.999"></point>
      <point x="161" y="139.999"></point>
      <point x="175" y="130.999" type="curve" smooth="yes"></point>
      <point x="222" y="100.999"></point>
      <point x="296" y="79.999"></point>
      <point x="379" y="79.999" type="curve" smooth="yes"></point>
      <point x="481" y="79.999"></point>
      <point x="543" y="111.08"></point>
      <point x="543" y="206.564" type="curve" smooth="yes"></point>
      <point x="543" y="251.271"></point>
      <point x="521" y="279.244"></point>
      <point x="453" y="310.999" type="curve" smooth="yes"></point>
      <point x="268" y="397.999" type="line" smooth="yes"></point>
      <point x="159" y="449.07"></point>
      <point x="128" y="525.146"></point>
      <point x="128" y="599.807" type="curve" smooth="yes"></point>
      <point x="128" y="736.3"></point>
      <point x="209" y="839.999"></point>
      <point x="383" y="839.999" type="curve" smooth="yes"></point>
      <point x="479" y="839.999"></point>
      <point x="556" y="815.999"></point>
      <point x="616" y="783.999" type="curve" smooth="yes"></point>
      <point x="636" y="773.999"></point>
      <point x="646" y="762.999"></point>
      <point x="646" y="740.999" type="curve" smooth="yes"></point>
      <point x="646" y="699.999" type="line"></point>
      <point x="645" y="680.999"></point>
      <point x="633" y="672.999"></point>
      <point x="616" y="681.999" type="curve" smooth="yes"></point>
      <point x="562" y="711.999"></point>
      <point x="482" y="743.999"></point>
      <point x="381" y="743.999" type="curve" smooth="yes"></point>
      <point x="280" y="743.999"></point>
      <point x="234" y="687.75"></point>
      <point x="234" y="613.595" type="curve" smooth="yes"></point>
      <point x="234" y="565.018"></point>
      <point x="248" y="524.613"></point>
      <point x="330" y="487" type="curve" smooth="yes"></point>
      <point x="507" y="404" type="line" smooth="yes"></point>
      <point x="617" y="353.229"></point>
      <point x="649" y="277.068"></point>
    </contour>
  </outline>
</glyph>
<glyph name="t" format="1">
  <advance width="714"></advance>
  <unicode hex="0074"></unicode>
  <outline>
    <contour>
      <point x="428" y="-16" type="curve" smooth="yes"></point>
      <point x="295" y="-16"></point>
      <point x="183" y="57.001"></point>
      <point x="183" y="191.001" type="curve" smooth="yes"></point>
      <point x="183" y="726" type="line"></point>
      <point x="97" y="726" type="line" smooth="yes"></point>
      <point x="86" y="726"></point>
      <point x="79" y="732.46"></point>
      <point x="79" y="741.423" type="curve" smooth="yes"></point>
      <point x="79" y="746.118"></point>
      <point x="81" y="751.5"></point>
      <point x="85" y="757" type="curve" smooth="yes"></point>
      <point x="278" y="998" type="line" smooth="yes"></point>
      <point x="283" y="1003.22"></point>
      <point x="288" y="1005.52"></point>
      <point x="294" y="1005.52" type="curve" smooth="yes"></point>
      <point x="303" y="1005.52"></point>
      <point x="312" y="999.03"></point>
      <point x="312" y="989" type="curve" smooth="yes"></point>
      <point x="312" y="824" type="line"></point>
      <point x="558" y="824" type="line" smooth="yes"></point>
      <point x="580" y="824"></point>
      <point x="592" y="812"></point>
      <point x="592" y="790" type="curve" smooth="yes"></point>
      <point x="592" y="760" type="line" smooth="yes"></point>
      <point x="592" y="738"></point>
      <point x="580" y="726"></point>
      <point x="558" y="726" type="curve" smooth="yes"></point>
      <point x="312" y="726" type="line"></point>
      <point x="312" y="208" type="line" smooth="yes"></point>
      <point x="312" y="102"></point>
      <point x="373" y="81"></point>
      <point x="445" y="81" type="curve" smooth="yes"></point>
      <point x="514" y="81"></point>
      <point x="570" y="102"></point>
      <point x="607" y="118" type="curve" smooth="yes"></point>
      <point x="624" y="126"></point>
      <point x="637" y="121"></point>
      <point x="637" y="103" type="curve" smooth="yes"></point>
      <point x="637" y="65" type="line" smooth="yes"></point>
      <point x="637" y="44"></point>
      <point x="636" y="37"></point>
      <point x="617" y="26" type="curve" smooth="yes"></point>
      <point x="581" y="5"></point>
      <point x="519" y="-16"></point>
    </contour>
  </outline>
</glyph>
<glyph name="u" format="1">
  <advance width="1054"></advance>
  <unicode hex="0075"></unicode>
  <outline>
    <contour>
      <point x="462" y="81.6982" type="curve" smooth="yes"></point>
      <point x="605" y="81.6982"></point>
      <point x="707" y="157.429"></point>
      <point x="770" y="221.581" type="curve"></point>
      <point x="770" y="790" type="line" smooth="yes"></point>
      <point x="770" y="811.736"></point>
      <point x="782" y="824"></point>
      <point x="804" y="824" type="curve" smooth="yes"></point>
      <point x="864" y="824" type="line" smooth="yes"></point>
      <point x="885" y="824"></point>
      <point x="898" y="811.736"></point>
      <point x="898" y="790" type="curve" smooth="yes"></point>
      <point x="898" y="34" type="line" smooth="yes"></point>
      <point x="898" y="12.2637"></point>
      <point x="885" y="0"></point>
      <point x="864" y="0" type="curve" smooth="yes"></point>
      <point x="804" y="0" type="line" smooth="yes"></point>
      <point x="782" y="0"></point>
      <point x="770" y="12"></point>
      <point x="770" y="34" type="curve" smooth="yes"></point>
      <point x="770" y="111.846" type="line"></point>
      <point x="712" y="52.1162"></point>
      <point x="610" y="-16"></point>
      <point x="443" y="-16" type="curve" smooth="yes"></point>
      <point x="262" y="-16"></point>
      <point x="147" y="83"></point>
      <point x="147" y="264" type="curve" smooth="yes"></point>
      <point x="147" y="790" type="line" smooth="yes"></point>
      <point x="147" y="812"></point>
      <point x="159" y="824"></point>
      <point x="181" y="824" type="curve" smooth="yes"></point>
      <point x="241" y="824" type="line" smooth="yes"></point>
      <point x="263" y="824"></point>
      <point x="275" y="812"></point>
      <point x="275" y="790" type="curve" smooth="yes"></point>
      <point x="275" y="265" type="line" smooth="yes"></point>
      <point x="275" y="139.262"></point>
      <point x="329" y="81.6982"></point>
    </contour>
  </outline>
</glyph>
<glyph name="v" format="1">
  <advance width="914"></advance>
  <unicode hex="0076"></unicode>
  <outline>
    <contour>
      <point x="472" y="-1.22461" type="line" smooth="yes"></point>
      <point x="468" y="-9.0918"></point>
      <point x="463" y="-13.0303"></point>
      <point x="457" y="-13.0303" type="curve" smooth="yes"></point>
      <point x="452" y="-13.0303"></point>
      <point x="446" y="-9.1543"></point>
      <point x="442" y="-1.39258" type="curve" smooth="yes"></point>
      <point x="58" y="793.392" type="line" smooth="yes"></point>
      <point x="56" y="797.888"></point>
      <point x="55" y="802.123"></point>
      <point x="55" y="805.927" type="curve" smooth="yes"></point>
      <point x="55" y="816.688"></point>
      <point x="63" y="823.999"></point>
      <point x="77" y="823.999" type="curve" smooth="yes"></point>
      <point x="143" y="823.999" type="line" smooth="yes"></point>
      <point x="166" y="823.999"></point>
      <point x="181" y="813.999"></point>
      <point x="191" y="792.999" type="curve" smooth="yes"></point>
      <point x="459" y="208.999" type="line"></point>
      <point x="716" y="792.999" type="line" smooth="yes"></point>
      <point x="725" y="813.999"></point>
      <point x="741" y="823.999"></point>
      <point x="764" y="823.999" type="curve" smooth="yes"></point>
      <point x="825" y="823.999" type="line" smooth="yes"></point>
      <point x="840" y="823.999"></point>
      <point x="848" y="816.635"></point>
      <point x="848" y="805.705" type="curve" smooth="yes"></point>
      <point x="848" y="801.92"></point>
      <point x="847" y="797.707"></point>
      <point x="845" y="793.225" type="curve" smooth="yes"></point>
    </contour>
  </outline>
</glyph>
<glyph name="w" format="1">
  <advance width="1195"></advance>
  <unicode hex="0077"></unicode>
  <outline>
    <contour>
      <point x="868" y="12.7744" type="line" smooth="yes"></point>
      <point x="865" y="5.00586"></point>
      <point x="860" y="1.10449"></point>
      <point x="855" y="1.10449" type="curve" smooth="yes"></point>
      <point x="850" y="1.10449"></point>
      <point x="846" y="4.81934"></point>
      <point x="842" y="12.2822" type="curve" smooth="yes"></point>
      <point x="592" y="601" type="line"></point>
      <point x="336" y="12.1904" type="line" smooth="yes"></point>
      <point x="333" y="4.7041"></point>
      <point x="328" y="0.977539"></point>
      <point x="323" y="0.977539" type="curve" smooth="yes"></point>
      <point x="318" y="0.977539"></point>
      <point x="314" y="4.89648"></point>
      <point x="311" y="12.6982" type="curve" smooth="yes"></point>
      <point x="8" y="792.301" type="line" smooth="yes"></point>
      <point x="6" y="796.491"></point>
      <point x="6" y="800.42"></point>
      <point x="6" y="803.988" type="curve" smooth="yes"></point>
      <point x="6" y="816.056"></point>
      <point x="15" y="824"></point>
      <point x="30" y="824" type="curve" smooth="yes"></point>
      <point x="80" y="824" type="line" smooth="yes"></point>
      <point x="103" y="824"></point>
      <point x="118" y="813.582"></point>
      <point x="126" y="792.226" type="curve" smooth="yes"></point>
      <point x="333" y="252" type="line"></point>
      <point x="575" y="815.769" type="line" smooth="yes"></point>
      <point x="579" y="823.568"></point>
      <point x="584" y="827.472"></point>
      <point x="589" y="827.472" type="curve" smooth="yes"></point>
      <point x="594" y="827.472"></point>
      <point x="599" y="823.609"></point>
      <point x="602" y="815.878" type="curve" smooth="yes"></point>
      <point x="852" y="249.001" type="line"></point>
      <point x="1046" y="791.993" type="line" smooth="yes"></point>
      <point x="1054" y="813.48"></point>
      <point x="1069" y="824"></point>
      <point x="1092" y="824" type="curve" smooth="yes"></point>
      <point x="1143" y="824" type="line" smooth="yes"></point>
      <point x="1158" y="824"></point>
      <point x="1167" y="816.002"></point>
      <point x="1167" y="803.826" type="curve" smooth="yes"></point>
      <point x="1167" y="800.282"></point>
      <point x="1166" y="796.384"></point>
      <point x="1165" y="792.226" type="curve" smooth="yes"></point>
    </contour>
  </outline>
</glyph>
<glyph name="x" format="1">
  <advance width="914"></advance>
  <unicode hex="0078"></unicode>
  <outline>
    <contour>
      <point x="742" y="25.9131" type="curve" smooth="yes"></point>
      <point x="459" y="345.015" type="line"></point>
      <point x="200" y="26.3877" type="line" smooth="yes"></point>
      <point x="186" y="8.46094"></point>
      <point x="168" y="0"></point>
      <point x="145" y="0" type="curve" smooth="yes"></point>
      <point x="68" y="0" type="line" smooth="yes"></point>
      <point x="57" y="-0"></point>
      <point x="50" y="5.60742"></point>
      <point x="50" y="13.166" type="curve" smooth="yes"></point>
      <point x="50" y="17.1162"></point>
      <point x="52" y="21.5996"></point>
      <point x="56" y="26.0938" type="curve" smooth="yes"></point>
      <point x="389" y="424.084" type="line"></point>
      <point x="57" y="798.566" type="line" smooth="yes"></point>
      <point x="53" y="803.053"></point>
      <point x="52" y="807.539"></point>
      <point x="52" y="811.467" type="curve" smooth="yes"></point>
      <point x="52" y="818.673"></point>
      <point x="58" y="824"></point>
      <point x="69" y="824" type="curve" smooth="yes"></point>
      <point x="135" y="824" type="line" smooth="yes"></point>
      <point x="158" y="824"></point>
      <point x="176" y="815.752"></point>
      <point x="191" y="798.337" type="curve" smooth="yes"></point>
      <point x="462" y="491.034" type="line"></point>
      <point x="715" y="797.728" type="line" smooth="yes"></point>
      <point x="730" y="815.573"></point>
      <point x="748" y="824"></point>
      <point x="771" y="824" type="curve" smooth="yes"></point>
      <point x="853" y="824" type="line" smooth="yes"></point>
      <point x="870" y="824"></point>
      <point x="876" y="811"></point>
      <point x="865" y="798.078" type="curve" smooth="yes"></point>
      <point x="533" y="410.663" type="line"></point>
      <point x="873" y="25.7793" type="line" smooth="yes"></point>
      <point x="877" y="21.2822"></point>
      <point x="878" y="16.7969"></point>
      <point x="878" y="12.8584" type="curve" smooth="yes"></point>
      <point x="878" y="5.46582"></point>
      <point x="872" y="0"></point>
      <point x="861" y="0" type="curve" smooth="yes"></point>
      <point x="798" y="0" type="line" smooth="yes"></point>
      <point x="775" y="-0"></point>
      <point x="757" y="8.32031"></point>
    </contour>
  </outline>
</glyph>
<glyph name="y" format="1">
  <advance width="918"></advance>
  <unicode hex="0079"></unicode>
  <outline>
    <contour>
      <point x="285" y="-244" type="line" smooth="yes"></point>
      <point x="266" y="-244"></point>
      <point x="258" y="-232"></point>
      <point x="266" y="-214" type="curve" smooth="yes"></point>
      <point x="417" y="124.097" type="line"></point>
      <point x="69" y="795" type="line" smooth="yes"></point>
      <point x="66" y="799.669"></point>
      <point x="65" y="804.082"></point>
      <point x="65" y="807.991" type="curve" smooth="yes"></point>
      <point x="65" y="817.479"></point>
      <point x="72" y="824"></point>
      <point x="85" y="824" type="curve" smooth="yes"></point>
      <point x="153" y="824" type="line" smooth="yes"></point>
      <point x="176" y="824"></point>
      <point x="194" y="816"></point>
      <point x="205" y="795" type="curve" smooth="yes"></point>
      <point x="476" y="255.035" type="line"></point>
      <point x="718" y="794" type="line" smooth="yes"></point>
      <point x="727" y="814"></point>
      <point x="745" y="824"></point>
      <point x="768" y="824" type="curve" smooth="yes"></point>
      <point x="828" y="824" type="line" smooth="yes"></point>
      <point x="841" y="824"></point>
      <point x="849" y="817.23"></point>
      <point x="849" y="807.073" type="curve" smooth="yes"></point>
      <point x="849" y="803.155"></point>
      <point x="848" y="798.732"></point>
      <point x="846" y="794" type="curve" smooth="yes"></point>
      <point x="390" y="-214" type="line"></point>
      <point x="379" y="-234"></point>
      <point x="363" y="-244"></point>
      <point x="340" y="-244" type="curve" smooth="yes"></point>
    </contour>
  </outline>
</glyph>
<glyph name="z" format="1">
  <advance width="844"></advance>
  <unicode hex="007A"></unicode>
  <outline>
    <contour>
      <point x="94" y="0" type="line" smooth="yes"></point>
      <point x="81" y="0"></point>
      <point x="74" y="6.2041"></point>
      <point x="74" y="14.9111" type="curve" smooth="yes"></point>
      <point x="74" y="18.8984"></point>
      <point x="76" y="23.4102"></point>
      <point x="79" y="28.0918" type="curve" smooth="yes"></point>
      <point x="555" y="726" type="line"></point>
      <point x="137" y="726" type="line" smooth="yes"></point>
      <point x="115" y="726"></point>
      <point x="103" y="738.266"></point>
      <point x="103" y="760" type="curve" smooth="yes"></point>
      <point x="103" y="790" type="line" smooth="yes"></point>
      <point x="103" y="811.738"></point>
      <point x="115" y="824"></point>
      <point x="137" y="824" type="curve" smooth="yes"></point>
      <point x="713" y="824" type="line" smooth="yes"></point>
      <point x="725" y="824"></point>
      <point x="732" y="817.734"></point>
      <point x="732" y="808.918" type="curve" smooth="yes"></point>
      <point x="732" y="804.934"></point>
      <point x="731" y="800.429"></point>
      <point x="728" y="795.746" type="curve" smooth="yes"></point>
      <point x="261" y="98" type="line"></point>
      <point x="685" y="98" type="line" smooth="yes"></point>
      <point x="706" y="98"></point>
      <point x="719" y="85.7363"></point>
      <point x="719" y="64" type="curve" smooth="yes"></point>
      <point x="719" y="34" type="line" smooth="yes"></point>
      <point x="719" y="12.2637"></point>
      <point x="706" y="0"></point>
      <point x="685" y="0" type="curve" smooth="yes"></point>
    </contour>
  </outline>
</glyph>
<glyph name="bar" format="1">
  <advance width="510"></advance>
  <unicode hex="007C"></unicode>
  <outline>
    <contour>
      <point x="311" y="1235.23" type="curve" smooth="yes"></point>
      <point x="311" y="-119.693" type="line" smooth="yes"></point>
      <point x="311" y="-145.127"></point>
      <point x="300" y="-159"></point>
      <point x="281" y="-159" type="curve" smooth="yes"></point>
      <point x="230" y="-159" type="line" smooth="yes"></point>
      <point x="211" y="-159"></point>
      <point x="201" y="-145.127"></point>
      <point x="201" y="-119.693" type="curve" smooth="yes"></point>
      <point x="201" y="1235.23" type="line" smooth="yes"></point>
      <point x="201" y="1260.66"></point>
      <point x="211" y="1274.53"></point>
      <point x="230" y="1274.53" type="curve" smooth="yes"></point>
      <point x="281" y="1274.53" type="line" smooth="yes"></point>
      <point x="300" y="1274.53"></point>
      <point x="311" y="1260.66"></point>
    </contour>
  </outline>
</glyph>
<glyph name="sterling" format="1">
  <advance width="826"></advance>
  <unicode hex="00A3"></unicode>
  <outline>
    <contour>
      <point x="522" y="-22" type="curve" smooth="yes"></point>
      <point x="402" y="-22"></point>
      <point x="283" y="32"></point>
      <point x="201" y="119" type="curve"></point>
      <point x="185" y="88.8926"></point>
      <point x="167" y="58.7852"></point>
      <point x="146" y="27.7578" type="curve" smooth="yes"></point>
      <point x="134" y="9.3584"></point>
      <point x="116" y="-0.000976562"></point>
      <point x="94" y="-0.000976562" type="curve" smooth="yes"></point>
      <point x="19" y="-0.000976562" type="line" smooth="yes"></point>
      <point x="7" y="-0.000976562"></point>
      <point x="0" y="5.93652"></point>
      <point x="0" y="14.2832" type="curve" smooth="yes"></point>
      <point x="0" y="18.2529"></point>
      <point x="1" y="22.7686"></point>
      <point x="5" y="27.4492" type="curve" smooth="yes"></point>
      <point x="116" y="184.033"></point>
      <point x="158" y="313.452"></point>
      <point x="158" y="424.999" type="curve" smooth="yes"></point>
      <point x="158" y="471.999"></point>
      <point x="150" y="519.999"></point>
      <point x="139" y="567.999" type="curve"></point>
      <point x="36" y="567.999" type="line" smooth="yes"></point>
      <point x="14" y="567.999"></point>
      <point x="2" y="580.263"></point>
      <point x="2" y="601.999" type="curve" smooth="yes"></point>
      <point x="2" y="631.999" type="line" smooth="yes"></point>
      <point x="2" y="653.735"></point>
      <point x="14" y="665.999"></point>
      <point x="36" y="665.999" type="curve" smooth="yes"></point>
      <point x="112" y="665.999" type="line"></point>
      <point x="83" y="761.999"></point>
      <point x="50" y="851.999"></point>
      <point x="50" y="919.999" type="curve" smooth="yes"></point>
      <point x="50" y="1164"></point>
      <point x="243" y="1274"></point>
      <point x="418" y="1274" type="curve" smooth="yes"></point>
      <point x="539" y="1274"></point>
      <point x="637" y="1216.57"></point>
      <point x="689" y="1171.56" type="curve" smooth="yes"></point>
      <point x="705" y="1158.21"></point>
      <point x="707" y="1138.77"></point>
      <point x="695" y="1122.28" type="curve" smooth="yes"></point>
      <point x="673" y="1092.82" type="line" smooth="yes"></point>
      <point x="660" y="1075.55"></point>
      <point x="643" y="1073.32"></point>
      <point x="626" y="1086.75" type="curve" smooth="yes"></point>
      <point x="588" y="1117.81"></point>
      <point x="517" y="1166"></point>
      <point x="421" y="1166" type="curve" smooth="yes"></point>
      <point x="304" y="1166"></point>
      <point x="169" y="1089"></point>
      <point x="169" y="923.999" type="curve" smooth="yes"></point>
      <point x="169" y="855.999"></point>
      <point x="202" y="763.999"></point>
      <point x="231" y="665.999" type="curve"></point>
      <point x="472" y="665.999" type="line" smooth="yes"></point>
      <point x="493" y="665.999"></point>
      <point x="506" y="653.735"></point>
      <point x="506" y="631.999" type="curve" smooth="yes"></point>
      <point x="506" y="601.999" type="line" smooth="yes"></point>
      <point x="506" y="580.263"></point>
      <point x="493" y="567.999"></point>
      <point x="472" y="567.999" type="curve" smooth="yes"></point>
      <point x="258" y="567.999" type="line"></point>
      <point x="269" y="518.999"></point>
      <point x="277" y="469.999"></point>
      <point x="277" y="422.999" type="curve" smooth="yes"></point>
      <point x="277" y="360.999"></point>
      <point x="269" y="295.999"></point>
      <point x="246" y="226.999" type="curve"></point>
      <point x="300" y="145.999"></point>
      <point x="407" y="84.999"></point>
      <point x="519" y="84.999" type="curve" smooth="yes"></point>
      <point x="610" y="84.999"></point>
      <point x="688" y="133.299"></point>
      <point x="702" y="235.083" type="curve" smooth="yes"></point>
      <point x="706" y="258.938"></point>
      <point x="717" y="269"></point>
      <point x="741" y="269" type="curve" smooth="yes"></point>
      <point x="795" y="269" type="line" smooth="yes"></point>
      <point x="814" y="269"></point>
      <point x="826" y="257.104"></point>
      <point x="826" y="238.84" type="curve" smooth="yes"></point>
      <point x="826" y="55.5811"></point>
      <point x="658" y="-22"></point>
    </contour>
  </outline>
</glyph>
<glyph name="yen" format="1">
  <advance width="944"></advance>
  <unicode hex="00A5"></unicode>
  <outline>
    <contour>
      <point x="449" y="0" type="line" smooth="yes"></point>
      <point x="427" y="0"></point>
      <point x="414" y="12.2637"></point>
      <point x="414" y="34" type="curve" smooth="yes"></point>
      <point x="414" y="437" type="line"></point>
      <point x="188" y="437" type="line" smooth="yes"></point>
      <point x="167" y="437"></point>
      <point x="154" y="449.264"></point>
      <point x="154" y="471" type="curve" smooth="yes"></point>
      <point x="154" y="496" type="line" smooth="yes"></point>
      <point x="154" y="517.736"></point>
      <point x="167" y="530"></point>
      <point x="188" y="530" type="curve" smooth="yes"></point>
      <point x="385" y="530" type="line"></point>
      <point x="320" y="647" type="line"></point>
      <point x="148" y="647" type="line" smooth="yes"></point>
      <point x="127" y="647"></point>
      <point x="114" y="659.264"></point>
      <point x="114" y="681" type="curve" smooth="yes"></point>
      <point x="114" y="706" type="line" smooth="yes"></point>
      <point x="114" y="727.736"></point>
      <point x="127" y="740"></point>
      <point x="148" y="740" type="curve" smooth="yes"></point>
      <point x="268" y="740" type="line"></point>
      <point x="4" y="1211.35" type="line" smooth="yes"></point>
      <point x="2" y="1215.99"></point>
      <point x="0" y="1220.38"></point>
      <point x="0" y="1224.3" type="curve" smooth="yes"></point>
      <point x="0" y="1234.17"></point>
      <point x="8" y="1241"></point>
      <point x="22" y="1241" type="curve" smooth="yes"></point>
      <point x="83" y="1241" type="line" smooth="yes"></point>
      <point x="106" y="1241"></point>
      <point x="122" y="1231.47"></point>
      <point x="133" y="1211.35" type="curve" smooth="yes"></point>
      <point x="481" y="592" type="line"></point>
      <point x="805" y="1210.88" type="line" smooth="yes"></point>
      <point x="815" y="1231.3"></point>
      <point x="831" y="1241"></point>
      <point x="855" y="1241" type="curve" smooth="yes"></point>
      <point x="923" y="1241" type="line" smooth="yes"></point>
      <point x="936" y="1241"></point>
      <point x="944" y="1234.05"></point>
      <point x="944" y="1223.97" type="curve" smooth="yes"></point>
      <point x="944" y="1220.07"></point>
      <point x="943" y="1215.71"></point>
      <point x="940" y="1211.09" type="curve" smooth="yes"></point>
      <point x="686" y="740" type="line"></point>
      <point x="801" y="740" type="line" smooth="yes"></point>
      <point x="822" y="740"></point>
      <point x="835" y="727.736"></point>
      <point x="835" y="706" type="curve" smooth="yes"></point>
      <point x="835" y="681" type="line" smooth="yes"></point>
      <point x="835" y="659.264"></point>
      <point x="822" y="647"></point>
      <point x="801" y="647" type="curve" smooth="yes"></point>
      <point x="636" y="647" type="line"></point>
      <point x="573" y="530" type="line"></point>
      <point x="761" y="530" type="line" smooth="yes"></point>
      <point x="782" y="530"></point>
      <point x="795" y="517.736"></point>
      <point x="795" y="496" type="curve" smooth="yes"></point>
      <point x="795" y="471" type="line" smooth="yes"></point>
      <point x="795" y="449.264"></point>
      <point x="782" y="437"></point>
      <point x="761" y="437" type="curve" smooth="yes"></point>
      <point x="543" y="437" type="line"></point>
      <point x="543" y="34" type="line" smooth="yes"></point>
      <point x="543" y="12.2637"></point>
      <point x="530" y="0"></point>
      <point x="509" y="0" type="curve" smooth="yes"></point>
    </contour>
  </outline>
</glyph>
<glyph name="dieresis" format="1">
  <advance width="508"></advance>
  <unicode hex="00A8"></unicode>
  <outline>
    <contour>
      <point x="90" y="-16" type="curve" smooth="yes"></point>
      <point x="31" y="-16"></point>
      <point x="0" y="28"></point>
      <point x="0" y="72" type="curve" smooth="yes"></point>
      <point x="0" y="115"></point>
      <point x="31" y="160"></point>
      <point x="90" y="160" type="curve" smooth="yes"></point>
      <point x="147" y="160"></point>
      <point x="178" y="114"></point>
      <point x="178" y="72" type="curve" smooth="yes"></point>
      <point x="178" y="28"></point>
      <point x="147" y="-16"></point>
    </contour>
    <contour>
      <point x="420" y="-16" type="curve" smooth="yes"></point>
      <point x="361" y="-16"></point>
      <point x="330" y="28"></point>
      <point x="330" y="72" type="curve" smooth="yes"></point>
      <point x="330" y="115"></point>
      <point x="361" y="160"></point>
      <point x="420" y="160" type="curve" smooth="yes"></point>
      <point x="477" y="160"></point>
      <point x="508" y="114"></point>
      <point x="508" y="72" type="curve" smooth="yes"></point>
      <point x="508" y="28"></point>
      <point x="477" y="-16"></point>
    </contour>
  </outline>
</glyph>
<glyph name="guillemotleft" format="1">
  <advance width="642"></advance>
  <unicode hex="00AB"></unicode>
  <outline>
    <contour>
      <point x="324" y="197" type="curve" smooth="yes"></point>
      <point x="314" y="197"></point>
      <point x="305" y="200.604"></point>
      <point x="300" y="205.334" type="curve" smooth="yes"></point>
      <point x="50" y="418" type="line"></point>
      <point x="16" y="440"></point>
      <point x="0" y="469"></point>
      <point x="0" y="497" type="curve" smooth="yes"></point>
      <point x="0" y="526"></point>
      <point x="17" y="555"></point>
      <point x="50" y="577" type="curve"></point>
      <point x="300" y="789.666" type="line" smooth="yes"></point>
      <point x="305" y="794.394"></point>
      <point x="314" y="798"></point>
      <point x="324" y="798" type="curve" smooth="yes"></point>
      <point x="340" y="798"></point>
      <point x="351" y="787"></point>
      <point x="351" y="774" type="curve" smooth="yes"></point>
      <point x="351" y="766"></point>
      <point x="344" y="758"></point>
      <point x="335" y="747" type="curve"></point>
      <point x="164" y="497" type="line"></point>
      <point x="335" y="248" type="line"></point>
      <point x="344" y="237"></point>
      <point x="351" y="229"></point>
      <point x="351" y="221" type="curve" smooth="yes"></point>
      <point x="351" y="208"></point>
      <point x="340" y="197"></point>
    </contour>
    <contour>
      <point x="615" y="197" type="curve" smooth="yes"></point>
      <point x="605" y="197"></point>
      <point x="596" y="200.604"></point>
      <point x="591" y="205.334" type="curve" smooth="yes"></point>
      <point x="341" y="418" type="line"></point>
      <point x="307" y="440"></point>
      <point x="291" y="469"></point>
      <point x="291" y="497" type="curve" smooth="yes"></point>
      <point x="291" y="526"></point>
      <point x="308" y="555"></point>
      <point x="341" y="577" type="curve"></point>
      <point x="591" y="789.666" type="line" smooth="yes"></point>
      <point x="596" y="794.394"></point>
      <point x="605" y="798"></point>
      <point x="615" y="798" type="curve" smooth="yes"></point>
      <point x="631" y="798"></point>
      <point x="642" y="787"></point>
      <point x="642" y="774" type="curve" smooth="yes"></point>
      <point x="642" y="766"></point>
      <point x="635" y="758"></point>
      <point x="626" y="747" type="curve"></point>
      <point x="455" y="497" type="line"></point>
      <point x="626" y="248" type="line"></point>
      <point x="635" y="237"></point>
      <point x="642" y="229"></point>
      <point x="642" y="221" type="curve" smooth="yes"></point>
      <point x="642" y="208"></point>
      <point x="631" y="197"></point>
    </contour>
  </outline>
</glyph>
<glyph name="registered" format="1">
  <advance width="1311"></advance>
  <unicode hex="00AE"></unicode>
  <outline>
    <contour>
      <point x="655" y="-34" type="curve" smooth="yes"></point>
      <point x="320" y="-34"></point>
      <point x="0" y="182"></point>
      <point x="0" y="619" type="curve" smooth="yes"></point>
      <point x="0" y="1058"></point>
      <point x="320" y="1274"></point>
      <point x="654" y="1274" type="curve" smooth="yes"></point>
      <point x="990" y="1274"></point>
      <point x="1311" y="1058"></point>
      <point x="1311" y="623" type="curve" smooth="yes"></point>
      <point x="1311" y="182"></point>
      <point x="990" y="-34"></point>
    </contour>
    <contour>
      <point x="654" y="52" type="curve" smooth="yes"></point>
      <point x="917" y="52"></point>
      <point x="1206" y="232"></point>
      <point x="1206" y="618" type="curve" smooth="yes"></point>
      <point x="1206" y="1008"></point>
      <point x="946" y="1189"></point>
      <point x="654" y="1189" type="curve" smooth="yes"></point>
      <point x="360" y="1189"></point>
      <point x="105" y="1008"></point>
      <point x="105" y="619" type="curve" smooth="yes"></point>
      <point x="105" y="231"></point>
      <point x="374" y="52"></point>
    </contour>
    <contour>
      <point x="607" y="968" type="curve" smooth="yes"></point>
      <point x="512" y="968" type="line"></point>
      <point x="512" y="679" type="line"></point>
      <point x="577" y="679" type="line" smooth="yes"></point>
      <point x="744" y="679"></point>
      <point x="818" y="698"></point>
      <point x="818" y="823" type="curve" smooth="yes"></point>
      <point x="818" y="921"></point>
      <point x="772" y="968"></point>
    </contour>
    <contour>
      <point x="512" y="250" type="line" smooth="yes"></point>
      <point x="512" y="236"></point>
      <point x="504" y="228"></point>
      <point x="489" y="228" type="curve" smooth="yes"></point>
      <point x="441" y="228" type="line" smooth="yes"></point>
      <point x="426" y="228"></point>
      <point x="419" y="236"></point>
      <point x="419" y="250" type="curve" smooth="yes"></point>
      <point x="419" y="1018" type="line" smooth="yes"></point>
      <point x="419" y="1033"></point>
      <point x="426" y="1041"></point>
      <point x="441" y="1041" type="curve" smooth="yes"></point>
      <point x="628" y="1041" type="line" smooth="yes"></point>
      <point x="827" y="1041"></point>
      <point x="915" y="971"></point>
      <point x="915" y="826" type="curve" smooth="yes"></point>
      <point x="915" y="665"></point>
      <point x="831" y="609"></point>
      <point x="628" y="605" type="curve"></point>
      <point x="944" y="244" type="line" smooth="yes"></point>
      <point x="951" y="236"></point>
      <point x="948" y="228"></point>
      <point x="937" y="228" type="curve" smooth="yes"></point>
      <point x="862" y="228" type="line" smooth="yes"></point>
      <point x="847" y="228"></point>
      <point x="836" y="233"></point>
      <point x="826" y="245" type="curve" smooth="yes"></point>
      <point x="522" y="605" type="line"></point>
      <point x="512" y="605" type="line"></point>
    </contour>
  </outline>
</glyph>
<glyph name="acute" format="1">
  <advance width="296"></advance>
  <unicode hex="00B4"></unicode>
  <outline>
    <contour>
      <point x="18" y="86" type="curve" smooth="yes"></point>
      <point x="8" y="86"></point>
      <point x="0" y="94"></point>
      <point x="0" y="106" type="curve" smooth="yes"></point>
      <point x="0" y="110"></point>
      <point x="1" y="115"></point>
      <point x="4" y="121" type="curve" smooth="yes"></point>
      <point x="171" y="441" type="line" smooth="yes"></point>
      <point x="186" y="469"></point>
      <point x="209" y="481"></point>
      <point x="231" y="481" type="curve" smooth="yes"></point>
      <point x="264" y="481"></point>
      <point x="296" y="454"></point>
      <point x="296" y="422" type="curve" smooth="yes"></point>
      <point x="296" y="409"></point>
      <point x="291" y="395"></point>
      <point x="279" y="381" type="curve" smooth="yes"></point>
      <point x="39" y="98" type="line" smooth="yes"></point>
      <point x="32" y="90"></point>
      <point x="25" y="86"></point>
    </contour>
  </outline>
</glyph>
<glyph name="cedilla" format="1">
  <advance width="221"></advance>
  <unicode hex="00B8"></unicode>
  <outline>
    <contour>
      <point x="221" y="-324.206" type="curve" smooth="yes"></point>
      <point x="221" y="-342.336"></point>
      <point x="211" y="-354.943"></point>
      <point x="195" y="-354.943" type="curve" smooth="yes"></point>
      <point x="194" y="-354.943"></point>
      <point x="193" y="-354.885"></point>
      <point x="192" y="-354.766" type="curve" smooth="yes"></point>
      <point x="91" y="-344.182"></point>
      <point x="0" y="-267.297"></point>
      <point x="0" y="-193" type="curve" smooth="yes"></point>
      <point x="0" y="-145"></point>
      <point x="38" y="-98"></point>
      <point x="136" y="-70" type="curve"></point>
      <point x="136" y="-27.5" type="line" smooth="yes"></point>
      <point x="136" y="-9.2793"></point>
      <point x="146" y="1"></point>
      <point x="164" y="1" type="curve" smooth="yes"></point>
      <point x="166" y="1" type="line" smooth="yes"></point>
      <point x="184" y="1"></point>
      <point x="195" y="-9.2793"></point>
      <point x="195" y="-27.5" type="curve" smooth="yes"></point>
      <point x="195" y="-72.7666" type="line" smooth="yes"></point>
      <point x="195" y="-97.6621"></point>
      <point x="185" y="-109.886"></point>
      <point x="161" y="-116.409" type="curve" smooth="yes"></point>
      <point x="115" y="-128.971"></point>
      <point x="97" y="-152.785"></point>
      <point x="97" y="-180" type="curve" smooth="yes"></point>
      <point x="97" y="-223.568"></point>
      <point x="145" y="-275.043"></point>
      <point x="203" y="-299.979" type="curve" smooth="yes"></point>
      <point x="215" y="-305.384"></point>
      <point x="221" y="-312.75"></point>
    </contour>
  </outline>
</glyph>
<glyph name="guillemotright" format="1">
  <advance width="642"></advance>
  <unicode hex="00BB"></unicode>
  <outline>
    <contour>
      <point x="318" y="798" type="curve" smooth="yes"></point>
      <point x="327" y="798"></point>
      <point x="336" y="794.396"></point>
      <point x="341" y="789.666" type="curve" smooth="yes"></point>
      <point x="592" y="577" type="line"></point>
      <point x="626" y="555"></point>
      <point x="642" y="526"></point>
      <point x="642" y="498" type="curve" smooth="yes"></point>
      <point x="642" y="469"></point>
      <point x="625" y="440"></point>
      <point x="592" y="418" type="curve"></point>
      <point x="341" y="205.334" type="line" smooth="yes"></point>
      <point x="336" y="200.606"></point>
      <point x="327" y="197"></point>
      <point x="318" y="197" type="curve" smooth="yes"></point>
      <point x="302" y="197"></point>
      <point x="291" y="208"></point>
      <point x="291" y="221" type="curve" smooth="yes"></point>
      <point x="291" y="229"></point>
      <point x="298" y="237"></point>
      <point x="307" y="248" type="curve"></point>
      <point x="478" y="498" type="line"></point>
      <point x="307" y="747" type="line"></point>
      <point x="298" y="758"></point>
      <point x="291" y="766"></point>
      <point x="291" y="774" type="curve" smooth="yes"></point>
      <point x="291" y="787"></point>
      <point x="302" y="798"></point>
    </contour>
    <contour>
      <point x="27" y="798" type="curve" smooth="yes"></point>
      <point x="36" y="798"></point>
      <point x="45" y="794.396"></point>
      <point x="50" y="789.666" type="curve" smooth="yes"></point>
      <point x="301" y="577" type="line"></point>
      <point x="335" y="555"></point>
      <point x="351" y="526"></point>
      <point x="351" y="498" type="curve" smooth="yes"></point>
      <point x="351" y="469"></point>
      <point x="334" y="440"></point>
      <point x="301" y="418" type="curve"></point>
      <point x="50" y="205.334" type="line" smooth="yes"></point>
      <point x="45" y="200.606"></point>
      <point x="36" y="197"></point>
      <point x="27" y="197" type="curve" smooth="yes"></point>
      <point x="11" y="197"></point>
      <point x="0" y="208"></point>
      <point x="0" y="221" type="curve" smooth="yes"></point>
      <point x="0" y="229"></point>
      <point x="7" y="237"></point>
      <point x="16" y="248" type="curve"></point>
      <point x="187" y="498" type="line"></point>
      <point x="16" y="747" type="line"></point>
      <point x="7" y="758"></point>
      <point x="0" y="766"></point>
      <point x="0" y="774" type="curve" smooth="yes"></point>
      <point x="0" y="787"></point>
      <point x="11" y="798"></point>
    </contour>
  </outline>
</glyph>
